<svg width="52" height="55" viewBox="0 0 52 55" fill="none" xmlns="http://www.w3.org/2000/svg">
<path d="M18.171 48.5244C13.117 46.3099 9.06326 42.3007 6.79295 37.2716C4.52264 32.2424 4.19695 26.5503 5.87881 21.295C7.56067 16.0397 11.1307 11.5943 15.8991 8.81781C20.6675 6.04128 26.2957 5.13069 31.6964 6.26198C33.4263 6.62436 35.0936 7.18802 36.6677 7.9333M27.1231 50.3997C32.641 50.3997 37.963 48.3545 42.0608 44.6593C46.1587 40.9641 48.7414 35.8812 49.3101 30.3927C49.6655 26.963 49.2186 23.527 48.0394 20.3443" stroke="#2D7641" stroke-width="1.31149" stroke-linecap="round"/>
<path d="M26.6483 32.9193C25.5291 36.9136 23.4037 42.669 21.0842 41.5673C19.1618 40.6542 18.5865 39.5553 18.5374 38.731C18.513 38.3227 18.1865 37.8444 17.7775 37.8254C16.1873 37.7517 14.1882 37.2233 14.5018 35.4716C14.9672 32.8729 15.3628 30.7712 23.1361 30.4466C23.3169 30.4391 23.53 30.1231 23.6743 29.8656C23.7822 29.6728 23.733 29.4353 23.5716 29.2843L23.0912 28.8349C22.9764 28.7275 22.8277 28.6768 22.6717 28.6969C20.8215 28.936 8.82022 30.3196 9.50422 25.8885C10.0031 22.6564 10.9953 21.4102 11.8694 21.0676C12.3012 20.8984 12.8926 20.3604 12.8274 19.9016C12.4471 17.2256 13.1441 13.7258 18.2147 14.7844C23.6963 15.9287 25.4638 22.3536 25.7368 26.0924C25.756 26.3551 26.4099 26.947 26.8118 27.2874C26.9917 27.4398 27.2516 27.4428 27.435 27.2947C27.8552 26.9555 28.5498 26.357 28.5691 26.0924C28.8421 22.3536 30.6096 15.9287 36.0912 14.7844C41.1618 13.7258 41.8588 17.2256 41.4785 19.9016C41.4133 20.3604 42.0047 20.8984 42.4365 21.0676C43.3106 21.4102 44.3028 22.6564 44.8017 25.8885C45.5427 30.6888 36.5082 29.8038 31.3963 28.665C31.0944 28.5978 30.7992 28.8029 30.7605 29.1095L30.6658 29.8596C30.6275 30.1633 30.8637 30.4338 31.1698 30.4466C38.9431 30.7712 39.3388 32.8729 39.8041 35.4716C40.1177 37.2233 38.1186 37.7517 36.5284 37.8254C36.1194 37.8444 35.7929 38.3227 35.7685 38.731C35.7194 39.5553 35.1441 40.6542 33.2217 41.5673C30.9026 42.6688 28.6587 36.9134 27.5649 32.9192C27.4195 32.3883 26.7968 32.3893 26.6483 32.9193Z" fill="#2D7641"/>
<path d="M27.5649 32.9192C27.0652 36.0279 26.1802 38.7567 24.7601 41.5673C23.34 44.378 21.5106 46.8614 19.0221 48.8456C16.5336 50.8298 13.6371 52.2709 10.5281 53.0716C7.41913 53.8722 4.16999 54.0139 1 53.4869M27.5649 32.9192C28.6587 36.9134 30.9026 42.6688 33.2217 41.5673C35.1441 40.6542 35.7194 39.5553 35.7685 38.731C35.7929 38.3227 36.1194 37.8444 36.5284 37.8254C38.1186 37.7517 40.1177 37.2233 39.8041 35.4716C39.3388 32.8729 38.9431 30.7712 31.1698 30.4466C30.8637 30.4338 30.6275 30.1633 30.6658 29.8596L30.7605 29.1095C30.7992 28.8029 31.0944 28.5978 31.3963 28.665C36.5082 29.8038 45.5427 30.6888 44.8017 25.8885C44.3028 22.6564 43.3106 21.4102 42.4365 21.0676C42.0047 20.8984 41.4133 20.3604 41.4785 19.9016C41.8588 17.2256 41.1618 13.7258 36.0912 14.7844C30.6096 15.9287 28.8421 22.3536 28.5691 26.0924C28.5498 26.357 27.8552 26.9555 27.435 27.2947C27.2516 27.4428 26.9917 27.4398 26.8118 27.2874C26.4099 26.947 25.756 26.3551 25.7368 26.0924C25.4638 22.3536 23.6963 15.9287 18.2147 14.7844C13.1441 13.7258 12.4471 17.2256 12.8274 19.9016C12.8926 20.3604 12.3012 20.8984 11.8694 21.0676C10.9953 21.4102 10.0031 22.6564 9.50422 25.8885C8.82022 30.3196 20.8215 28.936 22.6717 28.6969C22.8277 28.6768 22.9764 28.7275 23.0912 28.8349L23.5716 29.2843C23.733 29.4353 23.7822 29.6728 23.6743 29.8656C23.53 30.1231 23.3169 30.4391 23.1361 30.4466C15.3628 30.7712 14.9672 32.8729 14.5018 35.4716C14.1882 37.2233 16.1873 37.7517 17.7775 37.8254C18.1865 37.8444 18.513 38.3227 18.5374 38.731C18.5865 39.5553 19.1618 40.6542 21.0842 41.5673C23.4037 42.669 25.5291 36.9136 26.6483 32.9193C26.7968 32.3893 27.4195 32.3883 27.5649 32.9192Z" stroke="#2D7641" stroke-width="1.31149" stroke-linecap="round"/>
<path fill-rule="evenodd" clip-rule="evenodd" d="M50.5417 9.08294C51.8977 7.24001 52.5463 4.72987 51.1807 1.49751C49.1773 1.2131 44.9956 1.79342 43.1959 6.32782C41.403 10.8451 40.704 13.4098 40.5466 14.2619C40.9886 14.6524 41.4353 15.1027 41.8873 15.5581L41.8882 15.5591C41.974 15.6455 42.06 15.7322 42.1461 15.8186C42.7301 16.4046 43.3274 16.9869 43.959 17.4787C45.2204 18.4607 46.5786 19.0517 48.1844 18.5993C48.6038 18.4812 48.8979 18.2728 49.0981 18.015C49.2999 17.7551 49.4172 17.4306 49.4572 17.0666C49.538 16.3322 49.2998 15.471 48.8703 14.7857C48.1765 13.6782 47.0445 13.3065 45.5283 13.2198L45.4904 12.9411C45.4371 12.9373 45.3834 12.9338 45.3294 12.9307C45.3796 12.9137 45.4304 12.896 45.4818 12.8776L45.4575 12.6987C47.0098 12.1729 49.1537 10.9693 50.5417 9.08294ZM39.6912 12.7977L39.2478 13.0882L39.2476 13.0883L39.2476 13.0883L39.2476 13.0883L39.2473 13.0879L39.2458 13.0862L39.2395 13.079L39.2141 13.0505C39.1918 13.0254 39.1588 12.9887 39.1168 12.9427C39.0328 12.8507 38.9129 12.7218 38.7701 12.5749C38.4828 12.2795 38.1087 11.9175 37.7487 11.6353C37.5684 11.4939 37.3983 11.3779 37.2495 11.3002C37.0933 11.2187 36.9934 11.1971 36.9427 11.2004C36.9324 11.2011 36.9267 11.2027 36.9243 11.2035C36.9222 11.2042 36.9215 11.2048 36.9211 11.205L36.9211 11.205C36.9208 11.2053 36.9196 11.2062 36.9176 11.2084C36.9166 11.2096 36.9154 11.2111 36.914 11.213C36.9097 11.219 36.9034 11.2297 36.8964 11.2473C36.8654 11.3266 36.8442 11.4916 36.8822 11.7928C36.9557 12.376 37.1532 12.7822 37.4072 13.0737C37.663 13.3671 37.99 13.5603 38.346 13.6936C38.7036 13.8274 39.0812 13.8975 39.4313 13.95C39.5029 13.9608 39.5752 13.971 39.647 13.9811L39.6472 13.9811C39.7849 14.0005 39.9204 14.0196 40.044 14.0417C40.2507 13.0309 40.9743 10.4822 42.6661 6.21058C42.3102 4.829 41.5314 2.79664 40.6259 1.47205C40.1565 0.785414 39.6924 0.348547 39.282 0.232286C39.0913 0.178243 38.9097 0.192546 38.7258 0.291379C38.5341 0.394412 38.3221 0.599394 38.1038 0.959662C37.6698 1.67585 37.4597 2.59435 37.4194 3.63104C37.3791 4.66597 37.5086 5.80115 37.7378 6.93545C38.1965 9.20477 39.0479 11.4382 39.6912 12.7977Z" fill="#2D7641"/>
</svg>
