<svg width="256" height="256" viewBox="0 0 256 256" fill="none" xmlns="http://www.w3.org/2000/svg">
<rect width="256" height="256" rx="32" fill="#201E1E"/>
<path d="M109.477 48.0187C109.678 48.0185 109.879 48.0182 110.079 48.0178C110.626 48.017 111.173 48.017 111.72 48.0171C112.312 48.0172 112.904 48.0164 113.495 48.0158C114.653 48.0146 115.811 48.0142 116.968 48.0142C117.91 48.0141 118.852 48.0138 119.794 48.0134C122.468 48.0122 125.142 48.0115 127.817 48.0116C127.961 48.0117 128.105 48.0117 128.253 48.0117C128.397 48.0117 128.542 48.0117 128.69 48.0117C131.025 48.0117 133.359 48.0104 135.694 48.0085C138.095 48.0065 140.497 48.0056 142.898 48.0057C144.245 48.0057 145.591 48.0054 146.938 48.0039C148.085 48.0026 149.231 48.0023 150.378 48.0033C150.962 48.0037 151.546 48.0037 152.13 48.0025C156.16 47.9948 156.16 47.9948 157.723 48.1521C157.82 48.1618 157.916 48.1715 158.016 48.1815C159.079 48.3118 160.041 48.7038 161.011 49.1334C161.135 49.1856 161.259 49.2377 161.386 49.2914C164.205 50.5734 166.733 52.9897 167.896 55.8488C168.592 57.785 169.026 59.9563 168.998 62.016C169.16 61.9015 169.16 61.9015 169.326 61.7847C172.477 59.581 175.216 58.3431 179.119 58.7809C180.825 59.1466 182.576 60.037 183.869 61.1937C183.982 61.2865 184.095 61.3792 184.21 61.4748C186.389 63.3188 187.641 65.8957 187.983 68.7057C188.15 71.7858 187.063 74.2063 185.109 76.5431C184.905 76.7914 184.701 77.0398 184.498 77.2883C184.394 77.4143 184.29 77.5403 184.183 77.67C183.978 77.9191 183.773 78.1686 183.569 78.4185C182.828 79.3235 182.076 80.2172 181.315 81.1056C181.112 81.3434 180.911 81.5825 180.71 81.8216C177.748 85.3282 177.748 85.3282 176.334 85.4957C175.59 85.5246 174.978 85.5022 174.368 85.0401C173.716 84.2069 173.472 83.4972 173.542 82.4362C173.975 80.3445 175.714 78.6585 177.108 77.1352C177.36 76.8581 177.608 76.5778 177.854 76.2947C178.212 75.8838 178.582 75.4839 178.955 75.0859C181.375 72.5623 181.375 72.5623 182.113 69.256C181.991 67.8547 181.348 66.5567 180.315 65.5964C179.266 64.7483 178.057 64.3631 176.709 64.4829C174.08 64.9088 172.643 66.6203 171.111 68.6257C170.931 68.8608 170.75 69.0946 170.568 69.3283C169.619 70.5629 169.137 71.4456 169.092 73.012C169.088 73.1609 169.088 73.1609 169.084 73.3128C169.074 73.6472 169.066 73.9817 169.059 74.3161C169.056 74.434 169.053 74.5518 169.05 74.6733C168.969 78.0496 168.982 81.4267 168.988 84.8037C168.99 85.6686 168.99 86.5335 168.991 87.3983C168.993 89.0791 168.995 90.7599 168.998 92.4408C169.159 92.4685 169.32 92.4963 169.486 92.5249C169.7 92.5619 169.913 92.5989 170.127 92.636C170.233 92.6542 170.339 92.6724 170.448 92.6912C173.654 93.2494 175.938 94.7304 177.842 97.3927C178.486 98.3895 178.944 99.4066 179.325 100.527C179.4 100.74 179.4 100.74 179.476 100.959C179.634 101.452 179.701 101.931 179.738 102.445C179.747 102.564 179.757 102.682 179.766 102.804C179.877 105.628 178.428 107.966 176.966 110.272C176.664 110.755 176.456 111.218 176.296 111.765C176.355 111.813 176.413 111.862 176.474 111.912C178.83 113.908 181.028 116.191 181.458 119.387C181.697 122.819 180.819 125.877 178.546 128.504C178.155 128.946 177.755 129.379 177.351 129.81C176.39 130.836 175.592 131.911 174.919 133.144C175.041 133.199 175.162 133.254 175.287 133.311C177.878 134.516 179.555 136.379 180.565 139.037C181.54 141.759 181.406 144.803 180.195 147.423C179.661 148.515 178.995 149.47 178.224 150.412C178.082 150.592 178.082 150.592 177.938 150.776C175.795 153.462 173.331 156.07 170.099 157.402C169.509 157.633 169.509 157.633 169.135 158.087C169.118 158.282 169.109 158.478 169.103 158.675C169.1 158.796 169.096 158.918 169.092 159.044C169.088 159.176 169.085 159.309 169.081 159.446C169.072 159.728 169.062 160.011 169.052 160.294C169.038 160.738 169.024 161.182 169.012 161.626C168.951 163.794 168.855 165.909 167.793 167.86C167.745 167.951 167.697 168.041 167.648 168.135C166.015 171.156 163.216 173.602 159.939 174.709C158.787 175.045 157.725 175.239 156.523 175.237C156.347 175.238 156.347 175.238 156.167 175.238C155.775 175.24 155.383 175.24 154.99 175.24C154.709 175.241 154.427 175.241 154.145 175.242C153.381 175.244 152.617 175.245 151.852 175.245C151.374 175.246 150.896 175.246 150.419 175.247C148.923 175.249 147.428 175.25 145.932 175.251C144.207 175.251 142.481 175.254 140.756 175.258C139.422 175.261 138.087 175.262 136.753 175.262C135.956 175.262 135.159 175.263 134.363 175.266C133.613 175.268 132.864 175.268 132.114 175.267C131.84 175.267 131.565 175.268 131.29 175.269C130.915 175.271 130.539 175.27 130.163 175.268C130.055 175.269 129.947 175.271 129.836 175.272C128.654 175.261 127.675 174.931 126.816 174.114C126.358 173.583 126.158 173.11 126.187 172.406C126.307 171.622 126.53 171.098 127.137 170.558C128.658 169.547 130.95 169.695 132.702 169.707C132.904 169.707 133.106 169.708 133.307 169.708C133.737 169.708 134.167 169.709 134.596 169.711C135.28 169.714 135.964 169.715 136.648 169.716C137.733 169.718 138.818 169.721 139.903 169.724C141.838 169.73 143.772 169.735 145.706 169.738C146.382 169.739 147.057 169.741 147.732 169.743C149.756 169.751 151.778 169.747 153.801 169.678C153.956 169.673 154.11 169.668 154.269 169.663C156.814 169.563 159.435 169.166 161.276 167.27C163.43 164.765 163.343 160.926 163.49 157.813C163.384 157.772 163.279 157.73 163.17 157.688C160.296 156.527 157.653 154.622 156.329 151.783C155.232 148.882 155.344 145.659 156.619 142.835C157.021 141.994 157.529 141.267 158.119 140.545C158.219 140.42 158.319 140.295 158.421 140.166C159.018 139.426 159.644 138.718 160.285 138.017C160.975 137.245 161.633 136.442 162.25 135.611C162.188 135.565 162.125 135.519 162.06 135.471C159.201 133.368 156.795 131.05 156.002 127.474C155.888 126.446 155.916 125.407 155.916 124.373C154.053 124.328 152.19 124.283 150.271 124.236C150.271 124.914 150.271 125.593 150.271 126.292C148.816 126.292 147.362 126.292 145.864 126.292C145.864 124.211 145.864 122.131 145.864 119.987C145.183 119.987 144.501 119.987 143.799 119.987C143.799 120.666 143.799 121.344 143.799 122.043C143.072 122.043 142.345 122.043 141.595 122.043C141.595 121.32 141.595 120.596 141.595 119.85C142.277 119.85 142.959 119.85 143.661 119.85C143.661 119.172 143.661 118.494 143.661 117.795C142.298 117.795 140.934 117.795 139.53 117.795C139.53 119.197 139.53 120.599 139.53 122.043C138.803 122.043 138.076 122.043 137.327 122.043C137.327 119.239 137.327 116.435 137.327 113.546C136.645 113.546 135.964 113.546 135.261 113.546C135.261 117.752 135.261 121.958 135.261 126.292C133.125 126.292 130.99 126.292 128.789 126.292C128.789 124.89 128.789 123.488 128.789 122.043C127.381 122.043 125.972 122.043 124.521 122.043C124.521 121.365 124.521 120.686 124.521 119.987C123.794 119.987 123.066 119.987 122.317 119.987C122.317 116.415 122.317 112.842 122.317 109.161C123.726 109.161 125.135 109.161 126.586 109.161C126.586 108.482 126.586 107.804 126.586 107.105C124.541 107.105 122.496 107.105 120.39 107.105C120.39 107.829 120.39 108.552 120.39 109.298C119.617 109.298 118.845 109.298 118.049 109.298C118.049 108.574 118.049 107.85 118.049 107.105C117.413 107.105 116.776 107.105 116.121 107.105C116.121 107.829 116.121 108.552 116.121 109.298C114.621 109.298 113.122 109.298 111.577 109.298C111.577 108.574 111.577 107.85 111.577 107.105C110.895 107.105 110.214 107.105 109.511 107.105C109.511 106.427 109.511 105.748 109.511 105.049C108.83 105.049 108.148 105.049 107.446 105.049C107.446 106.451 107.446 107.853 107.446 109.298C106.719 109.298 105.992 109.298 105.243 109.298C105.243 106.448 105.243 103.599 105.243 100.664C105.924 100.664 106.606 100.664 107.308 100.664C107.308 99.94 107.308 99.2164 107.308 98.4709C108.035 98.4709 108.762 98.4709 109.511 98.4709C109.511 97.8377 109.511 97.2046 109.511 96.5522C108.784 96.5522 108.057 96.5522 107.308 96.5522C107.308 95.1502 107.308 93.7482 107.308 92.3037C106.626 92.3037 105.945 92.3037 105.243 92.3037C105.243 91.5349 105.243 90.766 105.243 89.9739C105.97 89.9739 106.697 89.9739 107.446 89.9739C107.446 90.6975 107.446 91.4211 107.446 92.1667C108.809 92.1667 110.172 92.1667 111.577 92.1667C111.577 91.443 111.577 90.7194 111.577 89.9739C115.848 89.9739 120.12 89.9739 124.521 89.9739C124.521 89.3407 124.521 88.7076 124.521 88.0552C123.794 88.0552 123.066 88.0552 122.317 88.0552C122.317 87.2864 122.317 86.5175 122.317 85.7254C123.09 85.7254 123.862 85.7254 124.658 85.7254C124.658 86.449 124.658 87.1726 124.658 87.9182C125.294 87.9182 125.931 87.9182 126.586 87.9182C126.586 87.1945 126.586 86.4709 126.586 85.7254C127.359 85.7254 128.131 85.7254 128.927 85.7254C128.927 86.449 128.927 87.1726 128.927 87.9182C129.563 87.9182 130.199 87.9182 130.855 87.9182C130.855 87.1945 130.855 86.4709 130.855 85.7254C131.582 85.7254 132.309 85.7254 133.058 85.7254C133.058 85.0922 133.058 84.4591 133.058 83.8067C132.331 83.8067 131.604 83.8067 130.855 83.8067C130.855 83.0379 130.855 82.269 130.855 81.4769C132.263 81.4769 133.672 81.4769 135.124 81.4769C135.124 80.8437 135.124 80.2106 135.124 79.5582C134.442 79.5582 133.76 79.5582 133.058 79.5582C133.058 78.7894 133.058 78.0205 133.058 77.2284C133.74 77.2284 134.421 77.2284 135.124 77.2284C135.124 76.5952 135.124 75.962 135.124 75.3097C133.76 75.3097 132.397 75.3097 130.993 75.3097C130.993 75.9881 130.993 76.6665 130.993 77.3654C128.902 77.3654 126.812 77.3654 124.658 77.3654C124.658 78.0438 124.658 78.7222 124.658 79.4212C125.34 79.4212 126.022 79.4212 126.724 79.4212C126.724 80.8684 126.724 82.3156 126.724 83.8067C125.27 83.8067 123.816 83.8067 122.317 83.8067C122.317 83.0379 122.317 82.269 122.317 81.4769C123.044 81.4769 123.772 81.4769 124.521 81.4769C124.521 80.8437 124.521 80.2106 124.521 79.5582C123.794 79.5582 123.066 79.5582 122.317 79.5582C122.317 77.3874 122.317 75.2165 122.317 72.9799C124.499 72.9799 126.68 72.9799 128.927 72.9799C128.927 73.7035 128.927 74.4271 128.927 75.1727C129.563 75.1727 130.199 75.1727 130.855 75.1727C130.855 74.449 130.855 73.7254 130.855 72.9799C132.309 72.9799 133.763 72.9799 135.261 72.9799C135.261 73.7035 135.261 74.4271 135.261 75.1727C135.988 75.1727 136.715 75.1727 137.464 75.1727C137.464 75.8963 137.464 76.6199 137.464 77.3654C136.737 77.3654 136.01 77.3654 135.261 77.3654C135.261 78.0438 135.261 78.7222 135.261 79.4212C135.988 79.4212 136.715 79.4212 137.464 79.4212C137.464 82.2252 137.464 85.0292 137.464 87.9182C138.101 87.9182 138.737 87.9182 139.392 87.9182C139.392 84.3905 139.392 80.8629 139.392 77.2284C140.165 77.2284 140.937 77.2284 141.733 77.2284C141.733 81.4344 141.733 85.6404 141.733 89.9739C142.415 89.9739 143.096 89.9739 143.799 89.9739C143.799 90.7427 143.799 91.5116 143.799 92.3037C143.117 92.3037 142.435 92.3037 141.733 92.3037C141.733 92.9369 141.733 93.57 141.733 94.2224C143.096 94.2224 144.46 94.2224 145.864 94.2224C145.864 93.544 145.864 92.8656 145.864 92.1667C146.546 92.1667 147.227 92.1667 147.93 92.1667C147.93 91.443 147.93 90.7194 147.93 89.9739C148.702 89.9739 149.475 89.9739 150.271 89.9739C150.271 90.6975 150.271 91.4211 150.271 92.1667C150.907 92.1667 151.543 92.1667 152.198 92.1667C152.198 91.443 152.198 90.7194 152.198 89.9739C154.38 89.9739 156.561 89.9739 158.808 89.9739C158.808 90.7427 158.808 91.5116 158.808 92.3037C158.081 92.3037 157.354 92.3037 156.605 92.3037C156.605 92.9369 156.605 93.57 156.605 94.2224C157.332 94.2224 158.059 94.2224 158.808 94.2224C158.808 94.9912 158.808 95.7601 158.808 96.5522C158.035 96.5522 157.263 96.5522 156.467 96.5522C156.467 95.8286 156.467 95.105 156.467 94.3594C155.831 94.3594 155.195 94.3594 154.539 94.3594C154.539 95.7614 154.539 97.1634 154.539 98.6079C153.812 98.6079 153.085 98.6079 152.336 98.6079C152.336 99.2863 152.336 99.9647 152.336 100.664C153.699 100.664 155.063 100.664 156.467 100.664C156.467 99.94 156.467 99.2164 156.467 98.4709C156.628 98.4963 156.79 98.5218 156.956 98.548C157.633 98.6221 158.289 98.6801 158.946 98.4709C159.565 97.975 159.909 97.2255 160.293 96.5475C160.926 95.5288 162.024 94.8895 163.056 94.3321C163.457 93.998 163.431 93.7736 163.49 93.263C163.505 92.9712 163.514 92.679 163.518 92.3868C163.521 92.2125 163.524 92.0382 163.526 91.8586C163.529 91.6663 163.531 91.474 163.533 91.2817C163.536 91.0766 163.539 90.8715 163.542 90.6664C163.55 90.1052 163.557 89.544 163.563 88.9829C163.567 88.6281 163.572 88.2733 163.576 87.9185C163.625 83.8961 163.642 79.8737 163.644 75.851C163.645 75.4271 163.645 75.0032 163.646 74.5793C163.649 71.8585 163.642 69.1391 163.565 66.4192C163.56 66.2719 163.56 66.2719 163.556 66.1216C163.57 60.5942 163.57 60.5942 161.046 55.8579C158.647 53.6685 155.251 53.6347 152.176 53.6368C151.986 53.6364 151.796 53.636 151.606 53.6356C151.089 53.6345 150.572 53.6342 150.055 53.6341C149.495 53.6339 148.935 53.6328 148.376 53.6319C147.154 53.63 145.933 53.6292 144.711 53.6286C143.948 53.6282 143.184 53.6276 142.42 53.627C140.301 53.6254 138.183 53.624 136.064 53.6235C135.929 53.6235 135.793 53.6234 135.654 53.6234C135.45 53.6234 135.45 53.6234 135.243 53.6233C134.968 53.6232 134.693 53.6232 134.419 53.6231C134.282 53.6231 134.146 53.6231 134.006 53.623C131.798 53.6225 129.59 53.6201 127.382 53.6169C125.11 53.6136 122.839 53.6119 120.567 53.6118C119.294 53.6117 118.02 53.6109 116.747 53.6084C115.663 53.6063 114.578 53.6056 113.494 53.6067C112.942 53.6072 112.389 53.6071 111.837 53.6052C106.728 53.4932 106.728 53.4932 102.37 55.8226C99.8413 58.5007 100.142 62.9521 99.9989 66.3882C99.9929 66.5304 99.9869 66.6725 99.9807 66.819C99.8505 69.9875 99.8381 73.1522 99.8497 76.3228C99.8524 77.1589 99.8535 77.995 99.8547 78.8311C99.8573 80.3378 99.8609 81.8444 99.8653 83.3511C99.8704 85.1072 99.8746 86.8634 99.8781 88.6195C99.8784 88.7373 99.8786 88.8552 99.8788 88.9766C99.8798 89.4601 99.8808 89.9436 99.8818 90.4271C99.8919 95.4443 99.9046 100.461 99.919 105.479C99.9201 105.875 99.9212 106.271 99.9224 106.667C99.9231 106.932 99.9239 107.197 99.9246 107.462C99.9308 109.628 99.9364 111.794 99.9417 113.961C99.9473 116.218 99.9534 118.474 99.9599 120.731C99.9636 121.986 99.967 123.241 99.9699 124.495C99.9723 125.551 99.9752 126.606 99.9786 127.661C99.9804 128.198 99.9819 128.735 99.9829 129.271C99.9839 129.851 99.986 130.431 99.9882 131.011C99.9883 131.181 99.9884 131.352 99.9886 131.527C99.9893 131.682 99.9901 131.836 99.9908 131.995C99.9912 132.128 99.9916 132.262 99.992 132.4C99.9962 132.752 99.9962 132.752 100.148 133.144C100.343 133.321 100.343 133.321 100.595 133.487C101.124 133.866 101.623 134.273 102.118 134.695C102.675 135.168 103.235 135.634 103.805 136.091C106.012 137.886 107.858 139.882 109.511 142.189C109.582 142.287 109.652 142.385 109.725 142.486C114.778 149.548 118.562 157.684 120.39 166.173C120.411 166.271 120.433 166.368 120.455 166.469C120.694 167.554 120.885 168.625 120.94 169.736C120.949 169.897 120.949 169.897 120.958 170.061C120.998 171.606 120.798 173.137 120.114 174.533C120.077 174.633 120.04 174.733 120.002 174.836C119.839 175.081 119.839 175.081 119.529 175.174C118.332 175.259 117.156 175.254 116.184 174.467C114.964 173.204 114.955 170.9 114.733 169.237C114.042 164.094 112.775 159.26 110.335 154.645C110.197 154.381 110.063 154.116 109.929 153.851C107.791 149.663 104.968 145.818 101.73 142.408C101.518 142.183 101.31 141.955 101.102 141.726C100.277 140.819 99.4235 139.98 98.4952 139.174C98.2366 138.941 97.9784 138.707 97.7207 138.472C97.2773 138.07 96.8313 137.672 96.3781 137.281C95.0957 136.161 94.5703 135.247 94.3642 133.555C94.329 132.841 94.332 132.128 94.3373 131.414C94.3379 131.201 94.3383 130.989 94.3386 130.777C94.3394 130.323 94.3411 129.868 94.3435 129.414C94.3473 128.691 94.3489 127.968 94.3502 127.244C94.3535 125.575 94.3595 123.906 94.3657 122.237C94.3713 120.713 94.3762 119.189 94.3789 117.665C94.3801 117.066 94.3818 116.467 94.3849 115.868C94.7559 106.4 94.7559 106.4 90.9217 98.1968C89.2857 96.808 87.0399 96.4835 84.962 96.3414C84.702 96.3234 84.702 96.3234 84.4367 96.3051C84.3047 96.2962 84.1727 96.2873 84.0367 96.2781C84.0371 96.3737 84.0375 96.4694 84.0379 96.5679C84.0471 98.9211 84.0539 101.274 84.0581 103.628C84.0602 104.766 84.0631 105.904 84.0679 107.042C84.1088 116.992 84.1088 116.992 83.6236 120.81C83.6071 120.944 83.5905 121.078 83.5735 121.216C83.478 121.962 83.3568 122.7 83.2191 123.439C83.1786 123.667 83.1381 123.894 83.0977 124.121C82.5666 127.065 81.9321 129.989 81.3151 132.916C78.7097 145.275 79.4115 154.766 83.4296 166.682C83.527 166.971 83.6244 167.26 83.7217 167.549C84.0137 168.416 84.3062 169.283 84.6017 170.149C86.4597 175.598 86.7612 179.072 84.1804 184.287C84.0296 184.591 83.8784 184.894 83.7269 185.197C83.6799 185.291 83.6328 185.385 83.5844 185.482C83.0763 186.496 82.554 187.5 81.9999 188.49C81.1084 190.087 80.2837 191.713 79.4662 193.349C79.4033 193.474 79.3403 193.6 79.2755 193.73C78.683 194.915 78.0921 196.101 77.5018 197.287C77.1756 197.942 76.8485 198.597 76.5211 199.252C76.3986 199.497 76.2765 199.742 76.1547 199.988C75.5218 201.264 74.8685 202.523 74.1562 203.757C74.0662 203.914 74.0662 203.914 73.9745 204.074C72.4822 206.62 72.4822 206.62 71.3425 206.936C70.5211 207.076 69.7303 207.001 69.0112 206.561C68.5174 206.166 68.2528 205.843 68.0635 205.232C68.0172 204.803 68.0172 204.803 68.0118 204.332C68.006 204.103 68.006 204.103 68 203.869C68.089 202.489 68.8223 201.149 69.406 199.921C69.4455 199.837 69.485 199.754 69.5257 199.668C70.3935 197.831 71.3022 196.015 72.2117 194.199C72.2803 194.062 72.3489 193.925 72.4196 193.783C73.2161 192.191 74.0361 190.616 74.8975 189.058C75.5801 187.823 76.232 186.573 76.8763 185.317C76.9348 185.203 76.9934 185.089 77.0537 184.972C77.7908 183.537 78.521 182.099 79.2258 180.649C79.2905 180.516 79.3552 180.384 79.4219 180.247C80.1177 178.796 80.6714 177.452 80.2374 175.84C80.2122 175.746 80.187 175.652 80.1611 175.555C79.8956 174.587 79.5774 173.637 79.2478 172.69C79.1384 172.375 79.0301 172.06 78.9222 171.744C78.6534 170.96 78.3828 170.177 78.112 169.393C73.5205 156.105 72.5219 144.775 76.3136 128.64C76.3459 128.504 76.3783 128.368 76.4116 128.228C76.4437 128.092 76.4758 127.957 76.509 127.817C76.936 126.015 77.3445 124.21 77.7111 122.394C77.7304 122.3 77.7497 122.205 77.7696 122.108C78.1401 120.286 78.4124 118.455 78.4771 116.596C78.4822 116.456 78.4873 116.316 78.4926 116.172C78.6008 112.715 78.5553 109.251 78.4598 105.794C78.404 103.748 78.3722 101.702 78.3666 99.6545C78.3657 99.3572 78.3643 99.0598 78.3623 98.7624C78.3531 97.2234 78.381 95.6945 78.5045 94.1597C78.514 94.0326 78.5236 93.9054 78.5334 93.7744C78.6173 92.85 78.7296 91.8595 79.3807 91.1559C82.0029 89.6481 86.1143 90.2138 88.9595 90.8818C89.976 91.1771 90.877 91.6256 91.8078 92.1203C92.3026 92.3773 92.8022 92.6245 93.3017 92.8724C93.4039 92.9232 93.5062 92.974 93.6116 93.0264C93.8624 93.151 94.1133 93.2756 94.3642 93.4001C94.364 93.1712 94.364 93.1712 94.3638 92.9376C94.3608 89.2127 94.3585 85.4878 94.3571 81.7628C94.3564 79.9614 94.3554 78.16 94.3538 76.3586C94.3525 74.7873 94.3516 73.216 94.3513 71.6446C94.3511 70.8138 94.3507 69.9829 94.3497 69.152C94.3487 68.3675 94.3484 67.583 94.3487 66.7985C94.3486 66.5129 94.3484 66.2274 94.3478 65.9418C94.3453 64.5025 94.361 63.0664 94.4233 61.6284C94.4284 61.5074 94.4334 61.3864 94.4386 61.2617C94.6128 57.6525 95.7412 54.2971 98.4264 51.7593C101.825 48.8362 105.02 48.0133 109.477 48.0187ZM133.196 85.8624C133.196 87.2192 133.196 88.576 133.196 89.9739C133.832 89.9739 134.468 89.9739 135.124 89.9739C135.124 88.6171 135.124 87.2603 135.124 85.8624C134.487 85.8624 133.851 85.8624 133.196 85.8624ZM126.724 88.0552C126.724 89.412 126.724 90.7688 126.724 92.1667C128.132 92.1667 129.541 92.1667 130.993 92.1667C130.993 93.5687 130.993 94.9707 130.993 96.4152C131.72 96.4152 132.447 96.4152 133.196 96.4152C133.196 97.0935 133.196 97.7719 133.196 98.4709C133.832 98.4709 134.468 98.4709 135.124 98.4709C135.124 96.4357 135.124 94.4006 135.124 92.3037C134.442 92.3037 133.76 92.3037 133.058 92.3037C133.058 91.5801 133.058 90.8565 133.058 90.1109C131.649 90.1109 130.241 90.1109 128.789 90.1109C128.789 89.4325 128.789 88.7542 128.789 88.0552C128.108 88.0552 127.426 88.0552 126.724 88.0552ZM137.464 90.1109C137.464 90.7893 137.464 91.4677 137.464 92.1667C138.101 92.1667 138.737 92.1667 139.392 92.1667C139.392 91.4883 139.392 90.8099 139.392 90.1109C138.756 90.1109 138.12 90.1109 137.464 90.1109ZM113.918 92.3037C113.918 93.6605 113.918 95.0173 113.918 96.4152C114.599 96.4152 115.281 96.4152 115.983 96.4152C115.983 95.0584 115.983 93.7016 115.983 92.3037C115.302 92.3037 114.62 92.3037 113.918 92.3037ZM118.186 92.3037C118.186 92.9369 118.186 93.57 118.186 94.2224C118.913 94.2224 119.641 94.2224 120.39 94.2224C120.39 94.9912 120.39 95.7601 120.39 96.5522C119.663 96.5522 118.935 96.5522 118.186 96.5522C118.186 97.1854 118.186 97.8185 118.186 98.4709C121.731 98.4709 125.275 98.4709 128.927 98.4709C128.927 99.9181 128.927 101.365 128.927 102.856C127.473 102.856 126.019 102.856 124.521 102.856C124.521 102.178 124.521 101.5 124.521 100.801C123.839 100.801 123.157 100.801 122.455 100.801C122.455 102.157 122.455 103.514 122.455 104.912C123.864 104.912 125.272 104.912 126.724 104.912C126.724 105.591 126.724 106.269 126.724 106.968C128.087 106.968 129.45 106.968 130.855 106.968C130.855 106.29 130.855 105.611 130.855 104.912C132.263 104.912 133.672 104.912 135.124 104.912C135.124 104.189 135.124 103.465 135.124 102.719C135.851 102.719 136.578 102.719 137.327 102.719C137.327 102.086 137.327 101.453 137.327 100.801C135.963 100.801 134.6 100.801 133.196 100.801C133.196 101.479 133.196 102.157 133.196 102.856C132.423 102.856 131.651 102.856 130.855 102.856C130.855 102.133 130.855 101.409 130.855 100.664C131.582 100.664 132.309 100.664 133.058 100.664C133.058 99.9853 133.058 99.3069 133.058 98.6079C132.331 98.6079 131.604 98.6079 130.855 98.6079C130.855 97.9295 130.855 97.2512 130.855 96.5522C129.446 96.5522 128.037 96.5522 126.586 96.5522C126.586 95.1502 126.586 93.7482 126.586 92.3037C125.95 92.3037 125.314 92.3037 124.658 92.3037C124.658 93.7057 124.658 95.1077 124.658 96.5522C123.886 96.5522 123.113 96.5522 122.317 96.5522C122.317 95.1502 122.317 93.7482 122.317 92.3037C120.954 92.3037 119.591 92.3037 118.186 92.3037ZM109.649 94.3594C109.649 95.0378 109.649 95.7162 109.649 96.4152C110.285 96.4152 110.921 96.4152 111.577 96.4152C111.577 95.7368 111.577 95.0584 111.577 94.3594C110.941 94.3594 110.304 94.3594 109.649 94.3594ZM150.271 94.3594C150.271 95.083 150.271 95.8067 150.271 96.5522C149.544 96.5522 148.816 96.5522 148.067 96.5522C148.067 97.909 148.067 99.2658 148.067 100.664C148.749 100.664 149.431 100.664 150.133 100.664C150.133 99.94 150.133 99.2164 150.133 98.4709C150.814 98.4709 151.496 98.4709 152.198 98.4709C152.198 97.1141 152.198 95.7573 152.198 94.3594C151.562 94.3594 150.926 94.3594 150.271 94.3594ZM111.714 96.5522C111.714 97.2306 111.714 97.909 111.714 98.6079C111.033 98.6079 110.351 98.6079 109.649 98.6079C109.649 99.3316 109.649 100.055 109.649 100.801C108.922 100.801 108.195 100.801 107.446 100.801C107.446 101.434 107.446 102.067 107.446 102.719C109.581 102.719 111.717 102.719 113.918 102.719C113.918 103.443 113.918 104.167 113.918 104.912C114.599 104.912 115.281 104.912 115.983 104.912C115.983 104.189 115.983 103.465 115.983 102.719C117.392 102.719 118.801 102.719 120.252 102.719C120.252 102.086 120.252 101.453 120.252 100.801C119.525 100.801 118.798 100.801 118.049 100.801C118.049 100.077 118.049 99.3535 118.049 98.6079C116.64 98.6079 115.231 98.6079 113.78 98.6079C113.78 97.9295 113.78 97.2512 113.78 96.5522C113.098 96.5522 112.417 96.5522 111.714 96.5522ZM137.464 96.5522C137.464 97.909 137.464 99.2658 137.464 100.664C138.101 100.664 138.737 100.664 139.392 100.664C139.392 99.94 139.392 99.2164 139.392 98.4709C140.165 98.4709 140.937 98.4709 141.733 98.4709C141.733 99.9181 141.733 101.365 141.733 102.856C141.006 102.856 140.279 102.856 139.53 102.856C139.53 104.213 139.53 105.57 139.53 106.968C140.212 106.968 140.893 106.968 141.595 106.968C141.595 106.29 141.595 105.611 141.595 104.912C144.413 104.912 147.23 104.912 150.133 104.912C150.133 104.234 150.133 103.555 150.133 102.856C149.406 102.856 148.679 102.856 147.93 102.856C147.93 102.178 147.93 101.5 147.93 100.801C146.521 100.801 145.112 100.801 143.661 100.801C143.661 99.3987 143.661 97.9967 143.661 96.5522C141.616 96.5522 139.571 96.5522 137.464 96.5522ZM164.867 99.9784C164.775 100.066 164.683 100.154 164.588 100.244C163.34 101.546 162.724 103.222 162.759 105.002C162.875 106.251 163.38 107.23 164.316 108.064C164.666 108.337 165.02 108.552 165.418 108.75C165.548 108.815 165.548 108.815 165.681 108.882C167.081 109.462 168.907 109.323 170.295 108.785C170.846 108.517 171.295 108.195 171.752 107.79C171.832 107.728 171.912 107.665 171.994 107.601C172.993 106.746 173.766 105.347 173.906 104.04C173.982 102.506 173.698 100.868 172.682 99.6647C171.666 98.6805 170.509 98.1891 169.101 98.1368C167.342 98.1899 166.123 98.7718 164.867 99.9784ZM156.605 100.801C156.605 101.434 156.605 102.067 156.605 102.719C156.923 102.719 157.241 102.719 157.569 102.719C157.807 101.772 157.807 101.772 157.844 100.801C157.435 100.801 157.026 100.801 156.605 100.801ZM152.336 102.856C152.336 103.535 152.336 104.213 152.336 104.912C153.018 104.912 153.699 104.912 154.402 104.912C154.402 104.234 154.402 103.555 154.402 102.856C153.72 102.856 153.038 102.856 152.336 102.856ZM111.714 105.049C111.714 105.682 111.714 106.316 111.714 106.968C112.396 106.968 113.078 106.968 113.78 106.968C113.78 106.335 113.78 105.702 113.78 105.049C113.098 105.049 112.417 105.049 111.714 105.049ZM118.186 105.049C118.186 105.682 118.186 106.316 118.186 106.968C118.868 106.968 119.55 106.968 120.252 106.968C120.252 106.335 120.252 105.702 120.252 105.049C119.57 105.049 118.889 105.049 118.186 105.049ZM156.605 105.049C156.605 105.682 156.605 106.316 156.605 106.968C156.968 106.968 157.332 106.968 157.706 106.968C157.615 106.335 157.525 105.702 157.431 105.049C157.158 105.049 156.886 105.049 156.605 105.049ZM133.196 107.105C133.196 107.829 133.196 108.552 133.196 109.298C132.469 109.298 131.742 109.298 130.993 109.298C130.993 109.931 130.993 110.564 130.993 111.216C133.128 111.216 135.264 111.216 137.464 111.216C137.464 111.94 137.464 112.664 137.464 113.409C138.101 113.409 138.737 113.409 139.392 113.409C139.392 111.329 139.392 109.248 139.392 107.105C137.347 107.105 135.303 107.105 133.196 107.105ZM150.271 107.105C150.271 107.783 150.271 108.462 150.271 109.161C150.907 109.161 151.543 109.161 152.198 109.161C152.198 108.482 152.198 107.804 152.198 107.105C151.562 107.105 150.926 107.105 150.271 107.105ZM154.539 107.105C154.539 109.231 154.539 111.356 154.539 113.546C153.812 113.546 153.085 113.546 152.336 113.546C152.336 115.627 152.336 117.707 152.336 119.85C153.018 119.85 153.699 119.85 154.402 119.85C154.402 119.127 154.402 118.403 154.402 117.658C155.083 117.658 155.765 117.658 156.467 117.658C156.467 116.934 156.467 116.21 156.467 115.465C157.24 115.465 158.012 115.465 158.808 115.465C158.808 116.46 158.808 117.455 158.808 118.48C159.56 117.845 159.56 117.845 160.273 117.179C160.359 117.095 160.444 117.01 160.532 116.924C160.62 116.836 160.709 116.748 160.8 116.658C160.893 116.565 160.987 116.473 161.083 116.377C161.278 116.184 161.473 115.99 161.668 115.796C161.968 115.497 162.269 115.2 162.57 114.903C162.76 114.714 162.951 114.525 163.141 114.336C163.276 114.203 163.276 114.203 163.414 114.067C163.497 113.984 163.579 113.902 163.664 113.817C163.737 113.745 163.81 113.672 163.885 113.598C164.07 113.415 164.07 113.415 164.041 113.135C163.94 113.097 163.84 113.058 163.737 113.019C161.995 112.327 160.094 111.47 159.144 109.777C158.969 109.487 158.969 109.487 158.67 109.298C157.9 109.2 157.257 109.246 156.467 109.298C156.467 108.574 156.467 107.85 156.467 107.105C155.831 107.105 155.195 107.105 154.539 107.105ZM141.733 109.298C141.733 111.333 141.733 113.368 141.733 115.465C143.778 115.465 145.823 115.465 147.93 115.465C147.93 113.43 147.93 111.395 147.93 109.298C145.885 109.298 143.84 109.298 141.733 109.298ZM124.658 111.353C124.658 112.71 124.658 114.067 124.658 115.465C126.022 115.465 127.385 115.465 128.789 115.465C128.789 114.787 128.789 114.108 128.789 113.409C129.471 113.409 130.153 113.409 130.855 113.409C130.855 112.731 130.855 112.052 130.855 111.353C128.81 111.353 126.765 111.353 124.658 111.353ZM130.993 113.546C130.993 114.903 130.993 116.26 130.993 117.658C131.674 117.658 132.356 117.658 133.058 117.658C133.058 116.301 133.058 114.944 133.058 113.546C132.376 113.546 131.695 113.546 130.993 113.546ZM163.982 120.667C163.24 121.575 162.553 122.531 161.975 123.551C161.926 123.638 161.876 123.725 161.825 123.815C161.352 124.827 161.411 126.093 161.673 127.153C162.176 128.495 163.096 129.638 164.403 130.271C165.701 130.797 166.883 130.994 168.249 130.567C169.314 130.102 170.108 129.284 170.926 128.484C171.058 128.358 171.191 128.231 171.324 128.104C172.178 127.275 172.943 126.403 173.68 125.469C173.799 125.323 173.919 125.177 174.038 125.032C175.15 123.661 175.962 122.358 175.883 120.536C175.684 119.141 175.002 118.044 173.955 117.109C173.858 117.016 173.762 116.923 173.662 116.827C169.784 114.225 166.351 117.875 163.982 120.667ZM124.658 117.795C124.658 118.473 124.658 119.152 124.658 119.85C125.294 119.85 125.931 119.85 126.586 119.85C126.586 119.172 126.586 118.494 126.586 117.795C125.95 117.795 125.314 117.795 124.658 117.795ZM128.927 117.795C128.927 118.473 128.927 119.152 128.927 119.85C129.563 119.85 130.199 119.85 130.855 119.85C130.855 119.172 130.855 118.494 130.855 117.795C130.219 117.795 129.582 117.795 128.927 117.795ZM148.067 117.795C148.067 118.473 148.067 119.152 148.067 119.85C148.749 119.85 149.431 119.85 150.133 119.85C150.133 119.172 150.133 118.494 150.133 117.795C149.451 117.795 148.77 117.795 148.067 117.795ZM130.993 119.987C130.993 120.621 130.993 121.254 130.993 121.906C131.674 121.906 132.356 121.906 133.058 121.906C133.058 121.273 133.058 120.64 133.058 119.987C132.376 119.987 131.695 119.987 130.993 119.987ZM150.271 119.987C150.271 120.621 150.271 121.254 150.271 121.906C150.907 121.906 151.543 121.906 152.198 121.906C152.198 121.273 152.198 120.64 152.198 119.987C151.562 119.987 150.926 119.987 150.271 119.987ZM148.067 122.043C148.067 122.722 148.067 123.4 148.067 124.099C148.749 124.099 149.431 124.099 150.133 124.099C150.133 123.421 150.133 122.742 150.133 122.043C149.451 122.043 148.77 122.043 148.067 122.043ZM164.695 141.234C162.927 143.215 161.305 145.263 161.377 148.019C161.516 149.413 162.157 150.574 163.228 151.479C164.343 152.277 165.566 152.617 166.932 152.468C169.875 151.97 171.988 149.22 173.655 146.941C174.73 145.428 175.837 143.742 175.551 141.811C175.222 140.408 174.453 139.314 173.267 138.489C169.766 136.601 167.048 138.71 164.695 141.234Z" fill="#77FE02"/>
<path d="M154.883 180.925C155.424 181.41 155.61 182.005 155.719 182.704C155.525 185.974 152.272 189.161 149.954 191.259C145.397 195.233 139.15 196.043 133.334 196.461C133.31 196.536 133.286 196.612 133.261 196.691C133.023 197.423 132.749 198.124 132.43 198.825C132.383 198.929 132.336 199.034 132.287 199.141C132.132 199.482 131.976 199.821 131.819 200.161C131.737 200.338 131.737 200.338 131.654 200.519C131.066 201.785 130.464 203.039 129.779 204.255C129.731 204.341 129.683 204.426 129.634 204.514C128.954 205.696 128.419 206.439 127.068 206.842C125.996 206.949 125.224 206.906 124.34 206.217C123.814 205.538 123.784 204.827 123.832 203.998C124.088 202.518 124.6 201.198 125.261 199.853C125.346 199.676 125.431 199.5 125.515 199.324C125.734 198.87 125.956 198.417 126.178 197.965C126.31 197.696 126.441 197.426 126.571 197.157C126.781 196.723 126.993 196.291 127.205 195.859C127.322 195.621 127.438 195.383 127.554 195.145C128.279 193.696 129.308 191.705 130.942 191.124C131.968 190.882 132.985 190.728 134.033 190.616C134.375 190.576 134.718 190.537 135.06 190.498C135.591 190.438 136.121 190.379 136.652 190.321C141.312 189.809 145.201 188.353 148.277 184.67C148.584 184.266 148.879 183.856 149.169 183.441C149.534 182.937 149.902 182.435 150.271 181.933C150.331 181.848 150.392 181.763 150.454 181.676C150.977 180.983 151.645 180.677 152.466 180.452C153.328 180.399 154.141 180.45 154.883 180.925Z" fill="#77FE02"/>
<path d="M143.663 72.9824C148.661 72.9824 153.66 72.9824 158.81 72.9824C158.81 77.9573 158.81 82.9322 158.81 88.0578C153.811 88.0578 148.813 88.0578 143.663 88.0578C143.663 83.0829 143.663 78.1081 143.663 72.9824ZM146.004 75.3123C146.004 78.7494 146.004 82.1866 146.004 85.728C149.457 85.728 152.911 85.728 156.469 85.728C156.469 82.2908 156.469 78.8536 156.469 75.3123C153.015 75.3123 149.562 75.3123 146.004 75.3123Z" fill="#77FE02"/>
<path d="M105.243 72.9824C110.242 72.9824 115.24 72.9824 120.39 72.9824C120.39 77.9573 120.39 82.9322 120.39 88.0578C115.392 88.0578 110.393 88.0578 105.243 88.0578C105.243 83.0829 105.243 78.1081 105.243 72.9824ZM107.447 75.3123C107.447 78.7494 107.447 82.1866 107.447 85.728C110.946 85.728 114.445 85.728 118.05 85.728C118.05 82.2908 118.05 78.8536 118.05 75.3123C114.551 75.3123 111.052 75.3123 107.447 75.3123Z" fill="#77FE02"/>
<path d="M105.243 111.219C110.242 111.219 115.24 111.219 120.39 111.219C120.39 116.194 120.39 121.169 120.39 126.295C115.392 126.295 110.393 126.295 105.243 126.295C105.243 121.32 105.243 116.345 105.243 111.219ZM107.447 113.549C107.447 117.032 107.447 120.514 107.447 124.102C110.946 124.102 114.445 124.102 118.05 124.102C118.05 120.619 118.05 117.137 118.05 113.549C114.551 113.549 111.052 113.549 107.447 113.549Z" fill="#77FE02"/>
<path d="M126.872 58.5714C127.057 58.5713 127.242 58.5711 127.427 58.5708C127.919 58.5704 128.41 58.571 128.901 58.5719C129.206 58.5725 129.511 58.5729 129.816 58.5733C132.264 58.5767 134.713 58.5825 137.162 58.6259C137.414 58.6302 137.666 58.634 137.919 58.637C140.735 58.6738 140.735 58.6738 141.614 59.3686C141.704 59.4875 141.704 59.4875 141.796 59.6089C141.889 59.7274 141.889 59.7274 141.984 59.8482C142.485 60.6075 142.526 61.2545 142.424 62.1529C142.18 62.8941 141.667 63.3567 141.047 63.7975C139.924 64.3154 138.611 64.2291 137.396 64.2263C137.192 64.2267 137.192 64.2267 136.984 64.2271C136.54 64.2277 136.096 64.2273 135.651 64.2268C135.339 64.2269 135.028 64.227 134.716 64.2272C134.064 64.2274 133.412 64.2271 132.761 64.2265C131.929 64.2257 131.097 64.2262 130.266 64.227C129.622 64.2275 128.979 64.2273 128.335 64.227C128.029 64.2269 127.722 64.227 127.416 64.2273C122.807 64.2311 122.807 64.2311 121.58 63.2664C120.988 62.4964 120.974 61.5776 121.08 60.6454C121.265 60.0165 121.519 59.641 122.027 59.2235C123.519 58.4513 125.227 58.5688 126.872 58.5714Z" fill="#77FE02"/>
<path d="M130.462 159.163C130.568 159.162 130.674 159.162 130.783 159.161C131.007 159.16 131.23 159.16 131.453 159.16C131.791 159.16 132.129 159.157 132.467 159.155C135.337 159.144 135.337 159.144 136.501 160.008C137.141 160.753 137.136 161.64 137.104 162.582C137.037 163.155 136.924 163.445 136.501 163.845C135.452 164.534 134.296 164.71 133.064 164.709C132.95 164.709 132.836 164.71 132.718 164.71C132.477 164.711 132.237 164.711 131.996 164.711C131.632 164.71 131.268 164.714 130.904 164.717C128.13 164.727 128.13 164.727 127.069 163.931C126.41 163.243 126.302 162.446 126.312 161.515C126.42 160.889 126.591 160.426 127.026 159.956C128.124 159.325 129.201 159.164 130.462 159.163Z" fill="#77FE02"/>
<path d="M147.931 77.2324C150.112 77.2324 152.293 77.2324 154.54 77.2324C154.54 79.4033 154.54 81.5741 154.54 83.8108C152.359 83.8108 150.178 83.8108 147.931 83.8108C147.931 81.6399 147.931 79.4691 147.931 77.2324Z" fill="#77FE02"/>
<path d="M109.512 77.2324C111.693 77.2324 113.874 77.2324 116.121 77.2324C116.121 79.4033 116.121 81.5741 116.121 83.8108C113.94 83.8108 111.759 83.8108 109.512 83.8108C109.512 81.6399 109.512 79.4691 109.512 77.2324Z" fill="#77FE02"/>
<path d="M109.512 115.466C110.577 115.464 111.642 115.461 112.739 115.458C113.075 115.457 113.412 115.455 113.759 115.454C114.024 115.454 114.289 115.453 114.554 115.453C114.763 115.452 114.763 115.452 114.976 115.451C115.107 115.451 115.238 115.451 115.374 115.451C115.488 115.45 115.603 115.45 115.721 115.45C115.983 115.466 115.983 115.466 116.121 115.603C116.134 115.805 116.137 116.008 116.137 116.21C116.137 116.341 116.137 116.472 116.137 116.606C116.136 116.745 116.135 116.883 116.135 117.026C116.134 117.152 116.134 117.279 116.134 117.409C116.133 117.884 116.132 118.358 116.13 118.833C116.127 119.893 116.124 120.953 116.121 122.045C113.94 122.045 111.759 122.045 109.512 122.045C109.512 119.874 109.512 117.703 109.512 115.466Z" fill="#77FE02"/>
<path d="M139.395 124.099C140.849 124.099 142.303 124.099 143.801 124.099C143.801 124.822 143.801 125.546 143.801 126.291C142.347 126.291 140.893 126.291 139.395 126.291C139.395 125.568 139.395 124.844 139.395 124.099Z" fill="#77FE02"/>
<path d="M156.47 111.219C157.243 111.219 158.015 111.219 158.811 111.219C158.811 111.988 158.811 112.757 158.811 113.549C158.039 113.549 157.266 113.549 156.47 113.549C156.47 112.78 156.47 112.011 156.47 111.219Z" fill="#77FE02"/>
<path d="M143.663 111.219C144.435 111.219 145.208 111.219 146.004 111.219C146.004 111.988 146.004 112.757 146.004 113.549C145.231 113.549 144.459 113.549 143.663 113.549C143.663 112.78 143.663 112.011 143.663 111.219Z" fill="#77FE02"/>
<path d="M122.319 124.099C123.091 124.099 123.864 124.099 124.66 124.099C124.66 124.822 124.66 125.546 124.66 126.291C123.887 126.291 123.115 126.291 122.319 126.291C122.319 125.568 122.319 124.844 122.319 124.099Z" fill="#77FE02"/>
</svg>
