<svg width="250" height="73" viewBox="0 0 250 73" fill="none" xmlns="http://www.w3.org/2000/svg">
<g clip-path="url(#clip0_584_3359)">
<path d="M206.39 26.5667C206.45 26.5668 206.51 26.5669 206.572 26.567C209.375 26.5759 212.153 27.0988 214.638 28.4539C214.709 28.4921 214.78 28.5303 214.853 28.5697C215.703 29.0416 216.492 29.62 217.225 30.2595C217.273 30.3011 217.321 30.3428 217.371 30.3857C218.106 31.0387 218.789 31.7331 219.372 32.5285C219.435 32.6146 219.501 32.6994 219.566 32.784C220.244 33.6787 220.798 34.7008 221.23 35.7384C221.25 35.7877 221.271 35.837 221.292 35.8878C221.765 37.0409 222.085 38.2414 222.277 39.474C222.29 39.5542 222.302 39.6344 222.315 39.717C222.407 40.3435 222.413 40.959 222.4 41.5909C222.509 41.589 222.509 41.589 222.62 41.587C223.648 41.5888 224.693 42.0373 225.419 42.7739C226.275 43.7477 226.721 44.882 227.021 46.1359C227.127 45.9754 227.18 45.8624 227.24 45.6834C227.267 45.6032 227.267 45.6032 227.294 45.5215C227.323 45.4351 227.323 45.4351 227.352 45.347C227.382 45.2577 227.382 45.2577 227.412 45.1666C227.476 44.9762 227.539 44.7856 227.602 44.595C227.665 44.4053 227.728 44.2156 227.792 44.026C227.831 43.908 227.87 43.79 227.909 43.6719C228.012 43.3658 228.122 43.0688 228.253 42.7739C230.104 43.1995 231.952 43.6332 233.798 44.0813C233.762 44.4052 233.686 44.695 233.576 45.0016C233.56 45.0483 233.543 45.0949 233.526 45.143C233.491 45.2443 233.455 45.3456 233.419 45.4468C233.32 45.7257 233.223 46.0052 233.125 46.2845C233.105 46.3434 233.084 46.4022 233.063 46.4628C232.66 47.616 232.273 48.7745 231.888 49.9338C231.869 49.9909 231.85 50.0479 231.83 50.1067C229.657 55.5063 229.657 55.5063 229.742 61.0609C229.937 61.4353 230.128 61.6854 230.532 61.8256C231.128 61.9052 231.617 61.7459 232.096 61.3898C233.588 60.1367 234.493 58.3922 235.338 56.658C235.37 56.5911 235.403 56.5242 235.437 56.4552C235.873 55.551 236.167 54.705 236.341 53.7175C236.436 53.2135 236.552 52.7139 236.666 52.2141C236.679 52.1569 236.692 52.0997 236.706 52.0407C237.332 49.3217 238.172 46.6489 239.096 44.0191C239.118 43.9563 239.139 43.8935 239.162 43.8288C239.221 43.6586 239.282 43.4885 239.342 43.3186C239.368 43.2451 239.368 43.2451 239.394 43.1701C239.513 42.8434 239.513 42.8434 239.65 42.7739C239.828 42.8084 240.001 42.8477 240.177 42.8915C240.231 42.9048 240.286 42.918 240.342 42.9317C240.523 42.9758 240.704 43.0205 240.884 43.0652C241.009 43.0959 241.135 43.1265 241.26 43.1572C241.523 43.2215 241.785 43.2861 242.048 43.351C242.385 43.4342 242.722 43.5169 243.06 43.5995C243.318 43.6628 243.577 43.7263 243.836 43.7898C243.96 43.8204 244.084 43.8509 244.209 43.8814C244.383 43.9241 244.556 43.9669 244.73 44.0098C244.782 44.0225 244.833 44.0352 244.887 44.0482C245.242 44.1364 245.242 44.1364 245.38 44.2058C245.256 44.6777 245.08 45.1176 244.888 45.5648C241.616 53.0935 241.616 53.0935 241.548 60.9539C241.694 61.3208 241.843 61.5504 242.188 61.7555C242.703 61.9093 243.105 61.843 243.592 61.6181C246.179 60.1705 247.476 56.2364 248.456 53.6237C248.577 53.3022 248.577 53.3022 248.645 53.2336C248.745 53.2282 248.846 53.227 248.947 53.2275C249.008 53.2277 249.069 53.2279 249.132 53.2282C249.228 53.2289 249.228 53.2289 249.326 53.2297C249.423 53.2302 249.423 53.2302 249.521 53.2306C249.681 53.2313 249.841 53.2323 250 53.2336C249.855 53.8102 249.671 54.3719 249.48 54.9341C249.464 54.9815 249.448 55.0289 249.432 55.0777C248.922 56.5737 248.335 58.0319 247.659 59.4597C247.632 59.5164 247.606 59.5731 247.579 59.6316C246.954 60.9592 246.231 62.2353 245.318 63.3821C245.268 63.4457 245.218 63.5094 245.166 63.575C245.034 63.7408 244.9 63.9044 244.764 64.067C244.701 64.1417 244.701 64.1417 244.637 64.218C243.722 65.2871 242.545 66.0702 241.19 66.4329C241.153 66.4438 241.115 66.4547 241.076 66.4659C240.078 66.6861 238.958 66.4974 238.085 65.9822C237.8 65.7863 237.553 65.5576 237.309 65.3122C237.271 65.2761 237.233 65.2399 237.194 65.2027C235.876 63.8368 235.745 61.6163 235.646 59.8332C235.625 59.8733 235.604 59.9133 235.582 59.9546C234.728 61.5768 233.81 63.0894 232.565 64.4405C232.524 64.4866 232.482 64.5327 232.44 64.5801C231.559 65.518 230.211 66.4103 228.903 66.5061C227.608 66.5376 226.532 66.3892 225.547 65.4493C224.641 64.4799 224.188 63.1856 223.976 61.8922C223.96 61.7096 223.96 61.7096 223.879 61.6388C223.848 61.6947 223.817 61.7505 223.786 61.8081C223.424 62.449 223 63.011 222.524 63.5689C222.494 63.6036 222.465 63.6384 222.434 63.6742C221.175 65.1529 219.466 66.2283 217.533 66.4951C215.754 66.6267 214.208 66.2354 212.84 65.0437C211.204 63.4936 210.489 61.2589 210.391 59.0388C210.382 58.7395 210.38 58.44 210.379 58.1405C210.379 58.0772 210.379 58.0139 210.378 57.9487C210.379 57.8891 210.379 57.8296 210.379 57.7682C210.379 57.7147 210.379 57.6613 210.379 57.6062C210.387 57.4673 210.387 57.4673 210.449 57.2806C210.383 57.2984 210.318 57.3162 210.251 57.3346C208.021 57.8915 205.37 57.8703 203.117 57.4673C203.056 57.4567 202.995 57.446 202.932 57.435C200.209 56.9455 197.506 55.8496 195.417 53.9808C195.37 53.9407 195.324 53.9007 195.276 53.8594C194.106 52.8266 193.167 51.6913 192.336 50.3696C192.313 50.3328 192.29 50.2959 192.266 50.2579C191.162 48.4823 190.557 46.3363 190.303 44.2681C190.297 44.2203 190.291 44.1724 190.285 44.1231C190.224 43.5492 190.227 42.973 190.226 42.3964C190.226 42.3137 190.226 42.3137 190.226 42.2294C190.229 39.7857 190.702 37.3773 191.782 35.1781C191.805 35.1296 191.828 35.0811 191.852 35.0312C192.406 33.8869 193.092 32.8235 193.938 31.8783C194.007 31.7986 194.007 31.7986 194.077 31.7173C195.153 30.4823 196.414 29.4514 197.833 28.6413C197.939 28.5802 198.045 28.5178 198.151 28.4554C199.588 27.6272 201.202 27.1476 202.821 26.8468C202.886 26.8347 202.951 26.8225 203.018 26.81C204.135 26.6162 205.259 26.5622 206.39 26.5667ZM204.411 33.497C204.348 33.5144 204.284 33.5317 204.218 33.5496C202.654 34.0277 201.379 35.1231 200.59 36.5572C200.153 37.3977 199.907 38.2855 199.791 39.225C204.06 39.225 208.329 39.225 212.728 39.225C212.689 38.7895 212.655 38.4114 212.539 37.9993C212.526 37.9518 212.513 37.9044 212.499 37.8555C212.361 37.3853 212.158 36.9576 211.923 36.5292C211.873 36.4366 211.824 36.3429 211.776 36.2491C211.526 35.791 211.18 35.4224 210.818 35.0535C210.745 34.9782 210.745 34.9782 210.67 34.9013C209.778 34.0386 208.675 33.6423 207.491 33.3725C207.42 33.356 207.42 33.356 207.348 33.3391C206.416 33.1759 205.323 33.2428 204.411 33.497ZM200.037 44.953C200.092 45.6261 200.092 45.6261 200.226 46.276C200.239 46.3261 200.252 46.3762 200.266 46.4278C200.721 48.0474 201.856 49.3429 203.292 50.1576C204.269 50.6769 205.344 50.9415 206.444 50.9922C206.492 50.9948 206.539 50.9974 206.588 51C208.4 51.0499 210.226 50.4135 211.619 49.249C211.673 49.2084 211.673 49.2084 211.727 49.167C212.265 48.7434 212.73 48.0853 212.974 47.4434C212.974 47.4023 212.974 47.3612 212.974 47.3189C213.037 47.3402 213.037 47.3402 213.101 47.3619C213.156 47.3798 213.21 47.3977 213.267 47.4162C213.321 47.4342 213.376 47.4523 213.432 47.4709C213.602 47.5082 213.675 47.5024 213.837 47.4434C213.95 47.3054 214.049 47.1702 214.149 47.0231C214.603 46.3744 215.111 45.7821 215.643 45.1974C215.75 45.0837 215.75 45.0837 215.808 44.953C210.604 44.953 205.399 44.953 200.037 44.953ZM220.306 47.5057C220.267 47.5419 220.227 47.5782 220.187 47.6156C219.939 47.8529 219.728 48.1186 219.516 48.389C219.487 48.4268 219.457 48.4646 219.427 48.5035C219.288 48.6833 219.17 48.8565 219.074 49.0622C219.325 49.1353 219.577 49.2078 219.828 49.2801C219.9 49.3009 219.971 49.3217 220.045 49.3431C220.148 49.3726 220.148 49.3726 220.253 49.4027C220.316 49.4209 220.379 49.4392 220.444 49.458C220.625 49.5074 220.625 49.5074 220.86 49.498C219.907 51.3394 218.678 52.9763 217.02 54.2295C216.746 54.4377 216.697 54.5849 216.64 54.9147C216.628 54.9818 216.628 54.9818 216.616 55.0504C216.593 55.1918 216.57 55.3333 216.548 55.475C216.528 55.5964 216.528 55.5964 216.508 55.7202C216.275 57.366 216.187 59.4887 217.189 60.8922C217.558 61.3603 217.954 61.6353 218.519 61.8256C219.7 61.9055 220.681 61.5793 221.592 60.7983C221.719 60.6856 221.844 60.5711 221.969 60.4558C222.009 60.4202 222.05 60.3846 222.091 60.3479C223.337 59.1847 223.983 57.4655 224.374 55.8451C224.445 55.5497 224.519 55.2548 224.592 54.9599C224.681 54.6022 224.77 54.2445 224.858 53.8866C224.983 53.3746 225.109 52.8628 225.242 52.3525C225.715 50.5236 226.25 48.3497 225.369 46.564C225.093 46.0991 224.709 45.7809 224.187 45.6378C222.64 45.4365 221.355 46.4959 220.306 47.5057Z" fill="#FCFCFC"/>
<path d="M18.5277 -0.00906721C18.6175 -0.00918377 18.7072 -0.00932712 18.797 -0.00949465C19.0417 -0.00987281 19.2864 -0.00986757 19.5312 -0.00979385C19.7959 -0.00978108 20.0606 -0.0101254 20.3253 -0.01042C20.8432 -0.0109357 21.3611 -0.0111083 21.879 -0.011143C22.3004 -0.0111727 22.7217 -0.011301 23.1431 -0.011498C24.3396 -0.0120459 25.5362 -0.0123335 26.7327 -0.0122868C26.7971 -0.0122843 26.8616 -0.0122818 26.9279 -0.0122792C26.9924 -0.0122767 27.0569 -0.0122741 27.1234 -0.0122715C28.1679 -0.0122462 29.2124 -0.0128417 30.2569 -0.0137198C31.3313 -0.0146159 32.4057 -0.015044 33.4802 -0.0149903C34.0826 -0.0149697 34.685 -0.0151381 35.2875 -0.0158108C35.8005 -0.0163801 36.3135 -0.0165112 36.8266 -0.0160904C37.0879 -0.0158883 37.3492 -0.0158792 37.6105 -0.0164237C39.4135 -0.0199255 39.4135 -0.0199255 40.1125 0.0515194C40.1558 0.0559227 40.1992 0.0603259 40.2438 0.0648626C40.7191 0.124051 41.1496 0.302178 41.5837 0.497342C41.6391 0.521018 41.6945 0.544694 41.7515 0.569088C43.0128 1.15152 44.1435 2.24924 44.6641 3.54811C44.9755 4.42769 45.1695 5.41412 45.1569 6.34983C45.2297 6.29782 45.2297 6.29782 45.304 6.24477C46.7134 5.24361 47.939 4.68124 49.685 4.88014C50.4486 5.04626 51.2317 5.45077 51.8105 5.97627C51.8608 6.0184 51.9112 6.06054 51.963 6.10395C52.9378 6.9417 53.4976 8.11235 53.651 9.38892C53.7256 10.7882 53.2392 11.8878 52.3649 12.9494C52.2737 13.0623 52.1826 13.1751 52.0915 13.288C52.0451 13.3452 51.9986 13.4024 51.9508 13.4614C51.8589 13.5746 51.7673 13.6879 51.6759 13.8014C51.3447 14.2126 51.0079 14.6186 50.6677 15.0222C50.5769 15.1302 50.4869 15.2388 50.3969 15.3475C49.0717 16.9404 49.0717 16.9404 48.4392 17.0166C48.1065 17.0297 47.8322 17.0195 47.5596 16.8096C47.2677 16.4311 47.1587 16.1087 47.19 15.6267C47.3837 14.6764 48.1616 13.9105 48.7852 13.2184C48.8983 13.0926 49.0091 12.9652 49.119 12.8366C49.2796 12.6499 49.4447 12.4682 49.6117 12.2874C50.6943 11.141 50.6943 11.141 51.0247 9.63894C50.9699 9.00233 50.6823 8.41265 50.2202 7.97639C49.7509 7.59109 49.2099 7.41613 48.6069 7.47052C47.4306 7.66401 46.7879 8.44156 46.1025 9.3526C46.022 9.4594 45.9409 9.56562 45.8596 9.67177C45.435 10.2326 45.219 10.6336 45.1992 11.3453C45.1973 11.4129 45.1973 11.4129 45.1953 11.4819C45.1912 11.6339 45.1876 11.7858 45.1841 11.9377C45.1828 11.9913 45.1815 12.0448 45.1802 12.1C45.1439 13.6338 45.1499 15.168 45.1527 16.7022C45.1534 17.0951 45.1536 17.488 45.1539 17.8809C45.1546 18.6445 45.1556 19.4081 45.1569 20.1717C45.2291 20.1843 45.3012 20.1969 45.3755 20.2099C45.471 20.2267 45.5665 20.2435 45.6619 20.2603C45.7094 20.2686 45.7568 20.2769 45.8057 20.2854C47.2401 20.539 48.2619 21.2119 49.114 22.4213C49.4017 22.8742 49.6068 23.3362 49.7774 23.845C49.8108 23.9422 49.8108 23.9422 49.8448 24.0413C49.9154 24.2655 49.9454 24.4833 49.9623 24.7167C49.9663 24.7705 49.9704 24.8242 49.9745 24.8796C50.0244 26.1624 49.3761 27.2246 48.722 28.2721C48.5866 28.4918 48.4935 28.7019 48.4221 28.9504C48.4484 28.9725 48.4747 28.9945 48.5017 29.0173C49.5557 29.9243 50.5392 30.9615 50.7314 32.4134C50.8387 33.9723 50.4456 35.3616 49.4286 36.5549C49.2539 36.756 49.0747 36.9527 48.8941 37.1484C48.4643 37.6145 48.1073 38.1029 47.806 38.6631C47.8604 38.688 47.9148 38.713 47.9709 38.7387C49.13 39.2864 49.8804 40.1328 50.3319 41.3403C50.7682 42.5769 50.7083 43.9595 50.1665 45.1499C49.9277 45.6461 49.6295 46.08 49.2846 46.5079C49.2212 46.5897 49.2212 46.5897 49.1566 46.6733C48.1978 47.8934 47.0955 49.0782 45.6498 49.6832C45.3855 49.7882 45.3855 49.7882 45.2185 49.9945C45.2108 50.0832 45.2065 50.1723 45.2042 50.2614C45.2025 50.3168 45.2008 50.3721 45.1991 50.4292C45.1975 50.4894 45.1959 50.5497 45.1942 50.6117C45.19 50.7401 45.1857 50.8685 45.1814 50.997C45.1748 51.1987 45.1686 51.4004 45.1632 51.6022C45.1362 52.587 45.093 53.5479 44.6179 54.4344C44.5965 54.4756 44.5751 54.5167 44.5531 54.5592C43.8224 55.9315 42.5702 57.0427 41.1041 57.5457C40.5887 57.6986 40.1135 57.7864 39.5756 57.7858C39.4969 57.7861 39.4969 57.7861 39.4165 57.7863C39.2411 57.7869 39.0656 57.787 38.8901 57.7871C38.7641 57.7874 38.638 57.7877 38.512 57.788C38.17 57.7888 37.828 57.7892 37.486 57.7895C37.2722 57.7897 37.0584 57.7899 36.8447 57.7902C36.1756 57.7911 35.5065 57.7917 34.8374 57.7919C34.0655 57.7922 33.2935 57.7933 32.5216 57.7951C31.9246 57.7964 31.3276 57.7971 30.7305 57.7971C30.3741 57.7972 30.0177 57.7976 29.6613 57.7987C29.3259 57.7997 28.9907 57.7998 28.6553 57.7993C28.5325 57.7992 28.4096 57.7995 28.2868 57.8001C28.1186 57.8009 27.9505 57.8006 27.7824 57.7999C27.7342 57.8004 27.6859 57.8009 27.6362 57.8014C27.1074 57.7967 26.6693 57.6468 26.2851 57.2755C26.0799 57.0342 25.9907 56.8194 26.0035 56.4995C26.0574 56.1434 26.157 55.9054 26.4285 55.6602C27.1092 55.2005 28.1343 55.2681 28.9185 55.2735C29.0087 55.2736 29.0989 55.2737 29.1891 55.2737C29.3813 55.2739 29.5736 55.2745 29.7658 55.2753C30.0717 55.2768 30.3776 55.2772 30.6835 55.2776C31.1691 55.2783 31.6547 55.2796 32.1402 55.2812C33.0056 55.2839 33.871 55.286 34.7364 55.2874C35.0385 55.2879 35.3406 55.2888 35.6428 55.2899C36.5484 55.2932 37.4529 55.2914 38.3581 55.2602C38.4271 55.2579 38.4961 55.2556 38.5672 55.2533C39.7059 55.2082 40.8786 55.0276 41.7024 54.1664C42.6658 53.0281 42.627 51.2844 42.6927 49.8699C42.6454 49.8512 42.5981 49.8324 42.5494 49.813C41.2639 49.2857 40.0812 48.4203 39.4891 47.1305C38.9983 45.8125 39.0484 44.3487 39.6188 43.0654C39.7988 42.6837 40.026 42.353 40.29 42.0251C40.3346 41.9683 40.3791 41.9115 40.425 41.8529C40.692 41.5169 40.9719 41.1953 41.2589 40.8767C41.5677 40.526 41.862 40.1612 42.1382 39.7837C42.11 39.7628 42.0819 39.7419 42.0528 39.7203C40.7737 38.765 39.6973 37.7116 39.3428 36.087C39.2915 35.6202 39.3043 35.1481 39.3043 34.6784C38.4708 34.6578 37.6372 34.6373 36.7784 34.6161C36.7784 34.9243 36.7784 35.2325 36.7784 35.55C36.1279 35.55 35.4773 35.55 34.807 35.55C34.807 34.6049 34.807 33.6598 34.807 32.686C34.5021 32.686 34.1971 32.686 33.8829 32.686C33.8829 32.9942 33.8829 33.3024 33.8829 33.6199C33.5576 33.6199 33.2323 33.6199 32.8972 33.6199C32.8972 33.2912 32.8972 32.9625 32.8972 32.6238C33.2022 32.6238 33.5071 32.6238 33.8213 32.6238C33.8213 32.3156 33.8213 32.0074 33.8213 31.6899C33.2114 31.6899 32.6015 31.6899 31.9731 31.6899C31.9731 32.3268 31.9731 32.9637 31.9731 33.6199C31.6478 33.6199 31.3225 33.6199 30.9874 33.6199C30.9874 32.3461 30.9874 31.0722 30.9874 29.7598C30.6824 29.7598 30.3775 29.7598 30.0633 29.7598C30.0633 31.6706 30.0633 33.5813 30.0633 35.55C29.1078 35.55 28.1523 35.55 27.1678 35.55C27.1678 34.9131 27.1678 34.2762 27.1678 33.6199C26.5375 33.6199 25.9073 33.6199 25.258 33.6199C25.258 33.3118 25.258 33.0036 25.258 32.686C24.9327 32.686 24.6074 32.686 24.2723 32.686C24.2723 31.0629 24.2723 29.4398 24.2723 27.7675C24.9025 27.7675 25.5327 27.7675 26.1821 27.7675C26.1821 27.4593 26.1821 27.1511 26.1821 26.8335C25.2672 26.8335 24.3524 26.8335 23.4098 26.8335C23.4098 27.1623 23.4098 27.491 23.4098 27.8297C23.0642 27.8297 22.7185 27.8297 22.3625 27.8297C22.3625 27.501 22.3625 27.1722 22.3625 26.8335C22.0778 26.8335 21.7932 26.8335 21.5 26.8335C21.5 27.1623 21.5 27.491 21.5 27.8297C20.8291 27.8297 20.1582 27.8297 19.4669 27.8297C19.4669 27.501 19.4669 27.1722 19.4669 26.8335C19.162 26.8335 18.857 26.8335 18.5428 26.8335C18.5428 26.5254 18.5428 26.2172 18.5428 25.8996C18.2379 25.8996 17.9329 25.8996 17.6187 25.8996C17.6187 26.5366 17.6187 27.1735 17.6187 27.8297C17.2935 27.8297 16.9682 27.8297 16.633 27.8297C16.633 26.5353 16.633 25.2409 16.633 23.9073C16.938 23.9073 17.2429 23.9073 17.5571 23.9073C17.5571 23.5786 17.5571 23.2498 17.5571 22.9111C17.8824 22.9111 18.2077 22.9111 18.5428 22.9111C18.5428 22.6235 18.5428 22.3358 18.5428 22.0395C18.2176 22.0395 17.8923 22.0395 17.5571 22.0395C17.5571 21.4026 17.5571 20.7656 17.5571 20.1094C17.2522 20.1094 16.9472 20.1094 16.633 20.1094C16.633 19.7601 16.633 19.4108 16.633 19.051C16.9583 19.051 17.2836 19.051 17.6187 19.051C17.6187 19.3797 17.6187 19.7085 17.6187 20.0471C18.2286 20.0471 18.8386 20.0471 19.4669 20.0471C19.4669 19.7184 19.4669 19.3897 19.4669 19.051C21.378 19.051 23.289 19.051 25.258 19.051C25.258 18.7633 25.258 18.4757 25.258 18.1793C24.9327 18.1793 24.6074 18.1793 24.2723 18.1793C24.2723 17.8301 24.2723 17.4808 24.2723 17.1209C24.6179 17.1209 24.9635 17.1209 25.3196 17.1209C25.3196 17.4496 25.3196 17.7784 25.3196 18.1171C25.6042 18.1171 25.8888 18.1171 26.1821 18.1171C26.1821 17.7883 26.1821 17.4596 26.1821 17.1209C26.5277 17.1209 26.8733 17.1209 27.2294 17.1209C27.2294 17.4496 27.2294 17.7784 27.2294 18.1171C27.514 18.1171 27.7986 18.1171 28.0919 18.1171C28.0919 17.7883 28.0919 17.4596 28.0919 17.1209C28.4172 17.1209 28.7424 17.1209 29.0776 17.1209C29.0776 16.8333 29.0776 16.5456 29.0776 16.2493C28.7523 16.2493 28.427 16.2493 28.0919 16.2493C28.0919 15.9 28.0919 15.5507 28.0919 15.1908C28.7221 15.1908 29.3524 15.1908 30.0017 15.1908C30.0017 14.9032 30.0017 14.6155 30.0017 14.3192C29.6967 14.3192 29.3918 14.3192 29.0776 14.3192C29.0776 13.9699 29.0776 13.6206 29.0776 13.2608C29.3825 13.2608 29.6875 13.2608 30.0017 13.2608C30.0017 12.9731 30.0017 12.6855 30.0017 12.3891C29.3918 12.3891 28.7819 12.3891 28.1535 12.3891C28.1535 12.6973 28.1535 13.0055 28.1535 13.323C27.2183 13.323 26.2831 13.323 25.3196 13.323C25.3196 13.6312 25.3196 13.9394 25.3196 14.2569C25.6245 14.2569 25.9295 14.2569 26.2437 14.2569C26.2437 14.9144 26.2437 15.5719 26.2437 16.2493C25.5931 16.2493 24.9425 16.2493 24.2723 16.2493C24.2723 15.9 24.2723 15.5507 24.2723 15.1908C24.5975 15.1908 24.9228 15.1908 25.258 15.1908C25.258 14.9032 25.258 14.6155 25.258 14.3192C24.9327 14.3192 24.6074 14.3192 24.2723 14.3192C24.2723 13.333 24.2723 12.3468 24.2723 11.3307C25.2481 11.3307 26.224 11.3307 27.2294 11.3307C27.2294 11.6594 27.2294 11.9881 27.2294 12.3268C27.514 12.3268 27.7986 12.3268 28.0919 12.3268C28.0919 11.9981 28.0919 11.6694 28.0919 11.3307C28.7424 11.3307 29.393 11.3307 30.0633 11.3307C30.0633 11.6594 30.0633 11.9881 30.0633 12.3268C30.3886 12.3268 30.7139 12.3268 31.049 12.3268C31.049 12.6556 31.049 12.9843 31.049 13.323C30.7237 13.323 30.3984 13.323 30.0633 13.323C30.0633 13.6312 30.0633 13.9394 30.0633 14.2569C30.3886 14.2569 30.7139 14.2569 31.049 14.2569C31.049 15.5308 31.049 16.8046 31.049 18.1171C31.3336 18.1171 31.6182 18.1171 31.9115 18.1171C31.9115 16.5145 31.9115 14.9119 31.9115 13.2608C32.2571 13.2608 32.6027 13.2608 32.9588 13.2608C32.9588 15.1715 32.9588 17.0823 32.9588 19.051C33.2638 19.051 33.5687 19.051 33.8829 19.051C33.8829 19.4003 33.8829 19.7495 33.8829 20.1094C33.578 20.1094 33.273 20.1094 32.9588 20.1094C32.9588 20.3971 32.9588 20.6847 32.9588 20.9811C33.5687 20.9811 34.1786 20.9811 34.807 20.9811C34.807 20.6729 34.807 20.3647 34.807 20.0471C35.112 20.0471 35.4169 20.0471 35.7311 20.0471C35.7311 19.7184 35.7311 19.3897 35.7311 19.051C36.0767 19.051 36.4223 19.051 36.7784 19.051C36.7784 19.3797 36.7784 19.7085 36.7784 20.0471C37.063 20.0471 37.3477 20.0471 37.6409 20.0471C37.6409 19.7184 37.6409 19.3897 37.6409 19.051C38.6168 19.051 39.5926 19.051 40.598 19.051C40.598 19.4003 40.598 19.7495 40.598 20.1094C40.2728 20.1094 39.9475 20.1094 39.6123 20.1094C39.6123 20.3971 39.6123 20.6847 39.6123 20.9811C39.9376 20.9811 40.2629 20.9811 40.598 20.9811C40.598 21.3303 40.598 21.6796 40.598 22.0395C40.2524 22.0395 39.9068 22.0395 39.5507 22.0395C39.5507 21.7108 39.5507 21.382 39.5507 21.0433C39.2661 21.0433 38.9815 21.0433 38.6882 21.0433C38.6882 21.6802 38.6882 22.3172 38.6882 22.9734C38.3629 22.9734 38.0377 22.9734 37.7025 22.9734C37.7025 23.2816 37.7025 23.5898 37.7025 23.9073C38.3124 23.9073 38.9223 23.9073 39.5507 23.9073C39.5507 23.5786 39.5507 23.2498 39.5507 22.9111C39.6229 22.9227 39.6951 22.9342 39.7695 22.9462C40.0722 22.9798 40.3658 23.0062 40.6596 22.9111C40.9366 22.6859 41.0905 22.3454 41.2625 22.0374C41.5455 21.5746 42.0368 21.2841 42.4985 21.0309C42.678 20.8791 42.6663 20.7772 42.6927 20.5452C42.6994 20.4126 42.7035 20.2799 42.7053 20.1472C42.7065 20.068 42.7078 19.9888 42.709 19.9072C42.7101 19.8198 42.7111 19.7325 42.7122 19.6451C42.7134 19.5519 42.7147 19.4588 42.7161 19.3656C42.7195 19.1106 42.7226 18.8557 42.7255 18.6008C42.7273 18.4396 42.7293 18.2784 42.7312 18.1172C42.753 16.2899 42.7609 14.4625 42.7618 12.635C42.762 12.4424 42.7622 12.2499 42.7625 12.0573C42.7639 10.8212 42.7607 9.58582 42.7261 8.35019C42.7243 8.28326 42.7243 8.28326 42.7223 8.21498C42.7288 5.7039 42.7288 5.7039 41.5994 3.55224C40.5259 2.5576 39.0067 2.54223 37.6311 2.5432C37.546 2.54303 37.461 2.54285 37.376 2.54264C37.1446 2.54214 36.9133 2.54202 36.6819 2.54198C36.4315 2.54186 36.181 2.54139 35.9306 2.54097C35.3842 2.54013 34.8377 2.53975 34.2913 2.53948C33.9495 2.5393 33.6078 2.53904 33.266 2.53876C32.3181 2.538 31.3703 2.53736 30.4224 2.53715C30.3619 2.53713 30.3013 2.53712 30.239 2.53711C30.1479 2.53709 30.1479 2.53709 30.0551 2.53707C29.9322 2.53704 29.8092 2.53701 29.6863 2.53698C29.6253 2.53697 29.5643 2.53695 29.5015 2.53694C28.5137 2.5367 27.526 2.53561 26.5382 2.53416C25.5219 2.53268 24.5056 2.53191 23.4893 2.53183C22.9195 2.53178 22.3498 2.53142 21.7801 2.53029C21.2949 2.52933 20.8098 2.52901 20.3247 2.52952C20.0776 2.52977 19.8305 2.52972 19.5835 2.52884C17.2975 2.47796 17.2975 2.47796 15.3477 3.53619C14.2165 4.75284 14.3513 6.77509 14.287 8.3361C14.2844 8.40069 14.2817 8.46528 14.2789 8.53182C14.2206 9.97124 14.2151 11.409 14.2203 12.8494C14.2215 13.2292 14.222 13.609 14.2225 13.9889C14.2237 14.6733 14.2253 15.3578 14.2273 16.0423C14.2295 16.8401 14.2314 17.6379 14.233 18.4357C14.2331 18.4892 14.2332 18.5428 14.2333 18.5979C14.2338 18.8176 14.2342 19.0372 14.2346 19.2569C14.2391 21.5362 14.2449 23.8154 14.2513 26.0947C14.2518 26.2747 14.2523 26.4547 14.2528 26.6347C14.2531 26.755 14.2535 26.8753 14.2538 26.9956C14.2566 27.9798 14.2591 28.964 14.2615 29.9482C14.2639 30.9734 14.2667 31.9986 14.2696 33.0239C14.2712 33.5939 14.2728 34.1639 14.2741 34.7339C14.2751 35.2133 14.2764 35.6928 14.278 36.1722C14.2788 36.416 14.2794 36.6598 14.2799 36.9036C14.2803 37.1671 14.2813 37.4306 14.2822 37.694C14.2823 37.7714 14.2823 37.8488 14.2824 37.9285C14.2827 37.9986 14.2831 38.0687 14.2834 38.1409C14.2836 38.2016 14.2838 38.2623 14.2839 38.3248C14.2858 38.4851 14.2858 38.4851 14.3536 38.6631C14.4411 38.7435 14.4411 38.7435 14.5538 38.8187C14.7903 38.991 15.0138 39.176 15.2353 39.3674C15.4843 39.5823 15.7349 39.7941 15.99 40.0017C16.9772 40.8171 17.803 41.724 18.5428 42.7722C18.5743 42.8167 18.6059 42.8611 18.6383 42.9069C20.8993 46.1151 22.5921 49.8113 23.4098 53.6678C23.4194 53.7123 23.4291 53.7567 23.4391 53.8025C23.546 54.2955 23.6315 54.7821 23.6562 55.2866C23.66 55.3597 23.66 55.3597 23.6639 55.4342C23.6821 56.1363 23.5926 56.8314 23.2866 57.4657C23.27 57.5112 23.2535 57.5567 23.2365 57.6036C23.1633 57.7148 23.1633 57.7148 23.0247 57.7571C22.4894 57.7955 21.963 57.7936 21.5284 57.4358C20.9825 56.862 20.9783 55.8154 20.8792 55.0599C20.57 52.7233 20.0032 50.5272 18.9115 48.4307C18.8496 48.3111 18.7895 48.1906 18.7296 48.07C17.7732 46.1675 16.5103 44.4206 15.0616 42.8715C14.9669 42.7693 14.8737 42.6658 14.7807 42.5619C14.4113 42.1495 14.0296 41.7685 13.6143 41.4025C13.4986 41.2964 13.3831 41.19 13.2678 41.0834C13.0694 40.9008 12.8699 40.7201 12.6671 40.5425C12.0934 40.0337 11.8583 39.6183 11.7661 38.8498C11.7503 38.5253 11.7517 38.2016 11.7541 37.8768C11.7543 37.7805 11.7545 37.6842 11.7546 37.5878C11.755 37.3814 11.7558 37.1749 11.7568 36.9685C11.7585 36.6399 11.7592 36.3114 11.7598 35.9828C11.7613 35.2245 11.764 34.4662 11.7667 33.7079C11.7692 33.0156 11.7715 32.3232 11.7727 31.6309C11.7732 31.3588 11.7739 31.0868 11.7754 30.8147C11.9413 26.5133 11.9413 26.5133 10.2259 22.7866C9.49398 22.1557 8.48924 22.0083 7.55959 21.9437C7.44325 21.9356 7.44325 21.9356 7.32457 21.9272C7.26551 21.9232 7.20645 21.9191 7.1456 21.915C7.14577 21.9584 7.14594 22.0018 7.14611 22.0466C7.15024 23.1157 7.15328 24.1847 7.15518 25.2538C7.15612 25.7708 7.1574 26.2879 7.15954 26.8049C7.17784 31.3252 7.17784 31.3252 6.96078 33.0596C6.95338 33.1205 6.94597 33.1813 6.93835 33.244C6.89565 33.5829 6.8414 33.9184 6.77981 34.2542C6.76168 34.3575 6.74359 34.4607 6.72551 34.564C6.48786 35.9011 6.204 37.2298 5.92798 38.5592C4.76232 44.1741 5.07628 48.4857 6.87397 53.899C6.91758 54.0303 6.96114 54.1617 7.00469 54.293C7.13532 54.6869 7.26618 55.0807 7.39838 55.474C8.22963 57.9497 8.36454 59.5278 7.20987 61.8972C7.14242 62.035 7.07476 62.1727 7.00698 62.3104C6.98595 62.3532 6.96491 62.3959 6.94324 62.44C6.71592 62.9007 6.48222 63.3567 6.23432 63.8065C5.83551 64.5319 5.46652 65.2708 5.10079 66.0137C5.07262 66.0708 5.04445 66.128 5.01543 66.187C4.75036 66.7254 4.48602 67.2641 4.22188 67.803C4.07595 68.1006 3.92964 68.3981 3.78312 68.6954C3.72833 68.8068 3.67369 68.9183 3.61921 69.0298C3.33604 69.6095 3.04376 70.1816 2.72509 70.7424C2.68485 70.8136 2.68485 70.8136 2.64379 70.8862C1.97616 72.0427 1.97617 72.0427 1.46623 72.1864C1.09875 72.2501 0.744944 72.2157 0.423249 72.016C0.202328 71.8367 0.0839382 71.6897 -0.000777964 71.4121C-0.021474 71.2173 -0.021474 71.2173 -0.0238805 71.0035C-0.0265012 70.8994 -0.0265012 70.8994 -0.0291748 70.7931C0.0106467 70.1663 0.338706 69.5574 0.599887 68.9995C0.617556 68.9615 0.635225 68.9235 0.653429 68.8843C1.04166 68.0502 1.44821 67.225 1.85512 66.4001C1.88583 66.3377 1.91653 66.2753 1.94816 66.2111C2.30448 65.4879 2.67137 64.7724 3.05676 64.0647C3.36213 63.5033 3.65381 62.9354 3.94205 62.3649C3.96825 62.3131 3.99444 62.2614 4.02143 62.208C4.35118 61.5563 4.6779 60.9031 4.99321 60.2441C5.02216 60.184 5.05111 60.1238 5.08093 60.0619C5.39225 59.4026 5.63999 58.792 5.4458 58.0598C5.43454 58.017 5.42327 57.9743 5.41166 57.9302C5.29288 57.4906 5.15053 57.0589 5.00306 56.6284C4.95409 56.4854 4.90567 56.3422 4.85736 56.199C4.73711 55.8428 4.61604 55.4868 4.4949 55.1309C2.44069 49.0943 1.99392 43.9469 3.69031 36.6169C3.70477 36.555 3.71923 36.4932 3.73413 36.4295C3.74851 36.3679 3.76289 36.3064 3.7777 36.2431C3.96878 35.4242 4.15153 34.6044 4.31554 33.7795C4.32418 33.7366 4.33282 33.6937 4.34172 33.6495C4.50748 32.8216 4.6293 31.99 4.65823 31.1451C4.66052 31.0816 4.66281 31.0182 4.66518 30.9528C4.71361 29.3822 4.69323 27.8086 4.65053 26.2382C4.62553 25.3084 4.61132 24.379 4.6088 23.4489C4.60839 23.3138 4.60777 23.1787 4.60691 23.0436C4.60278 22.3444 4.61526 21.6498 4.6705 20.9526C4.67477 20.8948 4.67905 20.8371 4.68345 20.7775C4.72099 20.3576 4.7712 19.9076 5.06252 19.588C6.23568 18.903 8.07511 19.16 9.34804 19.4635C9.80281 19.5976 10.2059 19.8013 10.6224 20.0261C10.8438 20.1428 11.0672 20.2552 11.2907 20.3678C11.3365 20.3908 11.3822 20.4139 11.4294 20.4377C11.5416 20.4943 11.6538 20.5509 11.7661 20.6075C11.766 20.5035 11.766 20.5035 11.7659 20.3974C11.7646 18.7052 11.7635 17.013 11.7629 15.3207C11.7626 14.5024 11.7622 13.684 11.7615 12.8656C11.7608 12.1518 11.7604 11.4379 11.7603 10.7241C11.7602 10.3466 11.76 9.96915 11.7596 9.59169C11.7592 9.2353 11.759 8.87891 11.7591 8.52252C11.7591 8.39278 11.759 8.26303 11.7588 8.13329C11.7576 7.47946 11.7647 6.82703 11.7925 6.17373C11.7948 6.11876 11.7971 6.06379 11.7994 6.00715C11.8773 4.36753 12.3822 2.84315 13.5835 1.69026C15.1042 0.362314 16.5335 -0.0115505 18.5277 -0.00906721ZM29.1392 17.1832C29.1392 17.7995 29.1392 18.4159 29.1392 19.051C29.4238 19.051 29.7084 19.051 30.0017 19.051C30.0017 18.4346 30.0017 17.8182 30.0017 17.1832C29.7171 17.1832 29.4324 17.1832 29.1392 17.1832ZM26.2437 18.1793C26.2437 18.7957 26.2437 19.4121 26.2437 20.0471C26.8739 20.0471 27.5042 20.0471 28.1535 20.0471C28.1535 20.6841 28.1535 21.321 28.1535 21.9772C28.4788 21.9772 28.8041 21.9772 29.1392 21.9772C29.1392 22.2854 29.1392 22.5936 29.1392 22.9111C29.4238 22.9111 29.7084 22.9111 30.0017 22.9111C30.0017 21.9866 30.0017 21.062 30.0017 20.1094C29.6967 20.1094 29.3918 20.1094 29.0776 20.1094C29.0776 19.7807 29.0776 19.4519 29.0776 19.1132C28.4473 19.1132 27.8171 19.1132 27.1678 19.1132C27.1678 18.8051 27.1678 18.4969 27.1678 18.1793C26.8628 18.1793 26.5579 18.1793 26.2437 18.1793ZM31.049 19.1132C31.049 19.4214 31.049 19.7296 31.049 20.0471C31.3336 20.0471 31.6182 20.0471 31.9115 20.0471C31.9115 19.739 31.9115 19.4308 31.9115 19.1132C31.6269 19.1132 31.3422 19.1132 31.049 19.1132ZM20.5143 20.1094C20.5143 20.7258 20.5143 21.3422 20.5143 21.9772C20.8192 21.9772 21.1242 21.9772 21.4384 21.9772C21.4384 21.3608 21.4384 20.7445 21.4384 20.1094C21.1334 20.1094 20.8284 20.1094 20.5143 20.1094ZM22.4241 20.1094C22.4241 20.3971 22.4241 20.6847 22.4241 20.9811C22.7493 20.9811 23.0746 20.9811 23.4098 20.9811C23.4098 21.3303 23.4098 21.6796 23.4098 22.0395C23.0845 22.0395 22.7592 22.0395 22.4241 22.0395C22.4241 22.3271 22.4241 22.6148 22.4241 22.9111C24.0098 22.9111 25.5956 22.9111 27.2294 22.9111C27.2294 23.5686 27.2294 24.2261 27.2294 24.9035C26.5788 24.9035 25.9283 24.9035 25.258 24.9035C25.258 24.5953 25.258 24.2871 25.258 23.9696C24.953 23.9696 24.6481 23.9696 24.3339 23.9696C24.3339 24.5859 24.3339 25.2023 24.3339 25.8374C24.9641 25.8374 25.5943 25.8374 26.2437 25.8374C26.2437 26.1456 26.2437 26.4538 26.2437 26.7713C26.8536 26.7713 27.4635 26.7713 28.0919 26.7713C28.0919 26.4631 28.0919 26.1549 28.0919 25.8374C28.7221 25.8374 29.3524 25.8374 30.0017 25.8374C30.0017 25.5086 30.0017 25.1799 30.0017 24.8412C30.327 24.8412 30.6523 24.8412 30.9874 24.8412C30.9874 24.5536 30.9874 24.2659 30.9874 23.9696C30.3775 23.9696 29.7676 23.9696 29.1392 23.9696C29.1392 24.2778 29.1392 24.5859 29.1392 24.9035C28.7936 24.9035 28.448 24.9035 28.0919 24.9035C28.0919 24.5747 28.0919 24.246 28.0919 23.9073C28.4172 23.9073 28.7424 23.9073 29.0776 23.9073C29.0776 23.5991 29.0776 23.2909 29.0776 22.9734C28.7523 22.9734 28.427 22.9734 28.0919 22.9734C28.0919 22.6652 28.0919 22.357 28.0919 22.0395C27.4616 22.0395 26.8314 22.0395 26.1821 22.0395C26.1821 21.4026 26.1821 20.7656 26.1821 20.1094C25.8974 20.1094 25.6128 20.1094 25.3196 20.1094C25.3196 20.7463 25.3196 21.3833 25.3196 22.0395C24.974 22.0395 24.6284 22.0395 24.2723 22.0395C24.2723 21.4026 24.2723 20.7656 24.2723 20.1094C23.6624 20.1094 23.0525 20.1094 22.4241 20.1094ZM18.6044 21.0433C18.6044 21.3515 18.6044 21.6597 18.6044 21.9772C18.8891 21.9772 19.1737 21.9772 19.4669 21.9772C19.4669 21.669 19.4669 21.3608 19.4669 21.0433C19.1823 21.0433 18.8977 21.0433 18.6044 21.0433ZM36.7784 21.0433C36.7784 21.3721 36.7784 21.7008 36.7784 22.0395C36.4531 22.0395 36.1279 22.0395 35.7927 22.0395C35.7927 22.6559 35.7927 23.2722 35.7927 23.9073C36.0977 23.9073 36.4026 23.9073 36.7168 23.9073C36.7168 23.5786 36.7168 23.2498 36.7168 22.9111C37.0218 22.9111 37.3267 22.9111 37.6409 22.9111C37.6409 22.2948 37.6409 21.6784 37.6409 21.0433C37.3563 21.0433 37.0717 21.0433 36.7784 21.0433ZM19.5285 22.0395C19.5285 22.3477 19.5285 22.6559 19.5285 22.9734C19.2236 22.9734 18.9186 22.9734 18.6044 22.9734C18.6044 23.3021 18.6044 23.6309 18.6044 23.9696C18.2792 23.9696 17.9539 23.9696 17.6187 23.9696C17.6187 24.2572 17.6187 24.5448 17.6187 24.8412C18.5743 24.8412 19.5298 24.8412 20.5143 24.8412C20.5143 25.1699 20.5143 25.4987 20.5143 25.8374C20.8192 25.8374 21.1242 25.8374 21.4384 25.8374C21.4384 25.5086 21.4384 25.1799 21.4384 24.8412C22.0686 24.8412 22.6988 24.8412 23.3482 24.8412C23.3482 24.5536 23.3482 24.2659 23.3482 23.9696C23.0229 23.9696 22.6976 23.9696 22.3625 23.9696C22.3625 23.6408 22.3625 23.3121 22.3625 22.9734C21.7322 22.9734 21.102 22.9734 20.4526 22.9734C20.4526 22.6652 20.4526 22.357 20.4526 22.0395C20.1477 22.0395 19.8427 22.0395 19.5285 22.0395ZM31.049 22.0395C31.049 22.6559 31.049 23.2722 31.049 23.9073C31.3336 23.9073 31.6182 23.9073 31.9115 23.9073C31.9115 23.5786 31.9115 23.2498 31.9115 22.9111C32.2571 22.9111 32.6027 22.9111 32.9588 22.9111C32.9588 23.5686 32.9588 24.2261 32.9588 24.9035C32.6335 24.9035 32.3082 24.9035 31.9731 24.9035C31.9731 25.5198 31.9731 26.1362 31.9731 26.7713C32.2781 26.7713 32.583 26.7713 32.8972 26.7713C32.8972 26.4631 32.8972 26.1549 32.8972 25.8374C34.1577 25.8374 35.4181 25.8374 36.7168 25.8374C36.7168 25.5292 36.7168 25.221 36.7168 24.9035C36.3915 24.9035 36.0662 24.9035 35.7311 24.9035C35.7311 24.5953 35.7311 24.2871 35.7311 23.9696C35.1009 23.9696 34.4706 23.9696 33.8213 23.9696C33.8213 23.3326 33.8213 22.6957 33.8213 22.0395C32.9064 22.0395 31.9916 22.0395 31.049 22.0395ZM43.3087 23.596C43.2675 23.6359 43.2263 23.6758 43.1838 23.7169C42.6256 24.3082 42.35 25.0696 42.3656 25.878C42.4174 26.4456 42.6435 26.8902 43.0623 27.2694C43.2189 27.3931 43.3774 27.491 43.5552 27.5807C43.6134 27.6105 43.6134 27.6105 43.6728 27.641C44.2993 27.9045 45.1163 27.8414 45.7374 27.597C45.9838 27.4751 46.1848 27.3288 46.3891 27.1448C46.4249 27.1165 46.4607 27.0882 46.4976 27.059C46.9444 26.6704 47.2903 26.0348 47.3529 25.4412C47.387 24.7441 47.2597 24.0003 46.8054 23.4535C46.3509 23.0064 45.8332 22.7831 45.2031 22.7594C44.4164 22.7835 43.871 23.0479 43.3087 23.596ZM39.6123 23.9696C39.6123 24.2572 39.6123 24.5448 39.6123 24.8412C39.7546 24.8412 39.897 24.8412 40.0436 24.8412C40.1501 24.4109 40.1501 24.4109 40.1668 23.9696C39.9838 23.9696 39.8008 23.9696 39.6123 23.9696ZM37.7025 24.9035C37.7025 25.2117 37.7025 25.5198 37.7025 25.8374C38.0075 25.8374 38.3124 25.8374 38.6266 25.8374C38.6266 25.5292 38.6266 25.221 38.6266 24.9035C38.3217 24.9035 38.0167 24.9035 37.7025 24.9035ZM19.5285 25.8996C19.5285 26.1873 19.5285 26.4749 19.5285 26.7713C19.8335 26.7713 20.1385 26.7713 20.4526 26.7713C20.4526 26.4836 20.4526 26.196 20.4526 25.8996C20.1477 25.8996 19.8427 25.8996 19.5285 25.8996ZM22.4241 25.8996C22.4241 26.1873 22.4241 26.4749 22.4241 26.7713C22.729 26.7713 23.034 26.7713 23.3482 26.7713C23.3482 26.4836 23.3482 26.196 23.3482 25.8996C23.0432 25.8996 22.7383 25.8996 22.4241 25.8996ZM39.6123 25.8996C39.6123 26.1873 39.6123 26.4749 39.6123 26.7713C39.775 26.7713 39.9376 26.7713 40.1052 26.7713C40.0645 26.4836 40.0239 26.196 39.982 25.8996C39.86 25.8996 39.738 25.8996 39.6123 25.8996ZM29.1392 26.8335C29.1392 27.1623 29.1392 27.491 29.1392 27.8297C28.8139 27.8297 28.4886 27.8297 28.1535 27.8297C28.1535 28.1174 28.1535 28.405 28.1535 28.7014C29.109 28.7014 30.0645 28.7014 31.049 28.7014C31.049 29.0301 31.049 29.3588 31.049 29.6975C31.3336 29.6975 31.6182 29.6975 31.9115 29.6975C31.9115 28.7524 31.9115 27.8073 31.9115 26.8335C30.9966 26.8335 30.0818 26.8335 29.1392 26.8335ZM36.7784 26.8335C36.7784 27.1417 36.7784 27.4499 36.7784 27.7675C37.063 27.7675 37.3477 27.7675 37.6409 27.7675C37.6409 27.4593 37.6409 27.1511 37.6409 26.8335C37.3563 26.8335 37.0717 26.8335 36.7784 26.8335ZM38.6882 26.8335C38.6882 27.7992 38.6882 28.7649 38.6882 29.7598C38.3629 29.7598 38.0377 29.7598 37.7025 29.7598C37.7025 30.7049 37.7025 31.65 37.7025 32.6238C38.0075 32.6238 38.3124 32.6238 38.6266 32.6238C38.6266 32.295 38.6266 31.9663 38.6266 31.6276C38.9316 31.6276 39.2365 31.6276 39.5507 31.6276C39.5507 31.2989 39.5507 30.9701 39.5507 30.6314C39.8963 30.6314 40.242 30.6314 40.598 30.6314C40.598 31.0835 40.598 31.5355 40.598 32.0012C40.9343 31.7126 40.9343 31.7126 41.2536 31.41C41.2918 31.3718 41.33 31.3336 41.3693 31.2942C41.4089 31.2543 41.4484 31.2144 41.4892 31.1733C41.531 31.1313 41.5727 31.0893 41.6158 31.046C41.7032 30.958 41.7905 30.8698 41.8778 30.7816C42.0119 30.6462 42.1466 30.5113 42.2813 30.3763C42.3664 30.2905 42.4514 30.2046 42.5365 30.1188C42.5971 30.0582 42.5971 30.0582 42.659 29.9963C42.6958 29.9589 42.7327 29.9215 42.7706 29.8829C42.8033 29.85 42.8359 29.8171 42.8695 29.7833C42.9521 29.7 42.9521 29.7 42.9391 29.573C42.8943 29.5556 42.8495 29.5382 42.8034 29.5202C42.0238 29.2061 41.1735 28.8164 40.7482 28.0476C40.67 27.9157 40.67 27.9157 40.5364 27.8297C40.1917 27.7853 39.9043 27.8063 39.5507 27.8297C39.5507 27.501 39.5507 27.1722 39.5507 26.8335C39.2661 26.8335 38.9815 26.8335 38.6882 26.8335ZM32.9588 27.8297C32.9588 28.7543 32.9588 29.6789 32.9588 30.6314C33.8737 30.6314 34.7885 30.6314 35.7311 30.6314C35.7311 29.7069 35.7311 28.7823 35.7311 27.8297C34.8162 27.8297 33.9014 27.8297 32.9588 27.8297ZM25.3196 28.7636C25.3196 29.38 25.3196 29.9964 25.3196 30.6314C25.9295 30.6314 26.5394 30.6314 27.1678 30.6314C27.1678 30.3232 27.1678 30.0151 27.1678 29.6975C27.4727 29.6975 27.7777 29.6975 28.0919 29.6975C28.0919 29.3893 28.0919 29.0812 28.0919 28.7636C27.177 28.7636 26.2622 28.7636 25.3196 28.7636ZM28.1535 29.7598C28.1535 30.3762 28.1535 30.9925 28.1535 31.6276C28.4584 31.6276 28.7634 31.6276 29.0776 31.6276C29.0776 31.0112 29.0776 30.3948 29.0776 29.7598C28.7726 29.7598 28.4677 29.7598 28.1535 29.7598ZM42.9131 32.9949C42.581 33.4074 42.2737 33.8414 42.015 34.3048C41.9928 34.3445 41.9707 34.3841 41.9479 34.425C41.736 34.8847 41.7627 35.4599 41.88 35.9413C42.1049 36.5509 42.5165 37.07 43.1011 37.3578C43.6821 37.5967 44.2109 37.6864 44.8217 37.4923C45.2983 37.2811 45.6538 36.9092 46.0194 36.5462C46.0788 36.4886 46.1381 36.431 46.1975 36.3735C46.5799 35.9968 46.9222 35.6007 47.2516 35.1765C47.305 35.1101 47.3585 35.0438 47.4121 34.9775C47.9095 34.3548 48.2727 33.7627 48.2373 32.9351C48.1482 32.3014 47.8431 31.8033 47.3748 31.3786C47.3316 31.3362 47.2884 31.2938 47.2439 31.2502C45.5085 30.0683 43.9727 31.7264 42.9131 32.9949ZM25.3196 31.6899C25.3196 31.9981 25.3196 32.3062 25.3196 32.6238C25.6042 32.6238 25.8888 32.6238 26.1821 32.6238C26.1821 32.3156 26.1821 32.0074 26.1821 31.6899C25.8974 31.6899 25.6128 31.6899 25.3196 31.6899ZM27.2294 31.6899C27.2294 31.9981 27.2294 32.3062 27.2294 32.6238C27.514 32.6238 27.7986 32.6238 28.0919 32.6238C28.0919 32.3156 28.0919 32.0074 28.0919 31.6899C27.8073 31.6899 27.5226 31.6899 27.2294 31.6899ZM35.7927 31.6899C35.7927 31.9981 35.7927 32.3062 35.7927 32.6238C36.0977 32.6238 36.4026 32.6238 36.7168 32.6238C36.7168 32.3156 36.7168 32.0074 36.7168 31.6899C36.4119 31.6899 36.1069 31.6899 35.7927 31.6899ZM28.1535 32.686C28.1535 32.9737 28.1535 33.2613 28.1535 33.5577C28.4584 33.5577 28.7634 33.5577 29.0776 33.5577C29.0776 33.27 29.0776 32.9824 29.0776 32.686C28.7726 32.686 28.4677 32.686 28.1535 32.686ZM36.7784 32.686C36.7784 32.9737 36.7784 33.2613 36.7784 33.5577C37.063 33.5577 37.3477 33.5577 37.6409 33.5577C37.6409 33.27 37.6409 32.9824 37.6409 32.686C37.3563 32.686 37.0717 32.686 36.7784 32.686ZM35.7927 33.6199C35.7927 33.9281 35.7927 34.2363 35.7927 34.5539C36.0977 34.5539 36.4026 34.5539 36.7168 34.5539C36.7168 34.2457 36.7168 33.9375 36.7168 33.6199C36.4119 33.6199 36.1069 33.6199 35.7927 33.6199ZM43.232 42.338C42.4408 43.238 41.7151 44.1685 41.7474 45.4207C41.8096 46.054 42.0966 46.5813 42.5757 46.9926C43.0744 47.355 43.6216 47.5094 44.2328 47.4418C45.5494 47.2156 46.4949 45.9662 47.2404 44.9308C47.7215 44.2435 48.2169 43.4777 48.089 42.6005C47.9414 41.9631 47.5975 41.466 47.0667 41.0912C45.5007 40.2334 44.2847 41.1917 43.232 42.338Z" fill="#64D502"/>
<path d="M131.842 26.5701C131.912 26.5696 131.912 26.5696 131.984 26.5691C132.861 26.5643 133.725 26.6315 134.584 26.823C134.632 26.8337 134.681 26.8443 134.731 26.8553C136.83 27.3316 138.593 28.395 140.171 29.8582C140.223 29.9066 140.223 29.9066 140.276 29.956C140.869 30.5138 141.327 31.1652 141.819 31.8155C141.839 30.2335 141.859 28.6515 141.88 27.0215C144.523 27.0215 147.166 27.0215 149.889 27.0215C149.889 41.0133 149.889 55.0051 149.889 69.4209C146.84 69.4209 143.79 69.4209 140.648 69.4209C140.628 63.8529 140.607 58.285 140.586 52.5483C140.403 52.8359 140.221 53.1236 140.032 53.4199C139.905 53.5932 139.779 53.7605 139.643 53.9258C139.592 53.988 139.592 53.988 139.54 54.0515C138.689 55.0787 137.701 55.8588 136.52 56.4707C136.483 56.4905 136.445 56.5103 136.406 56.5307C135.59 56.9545 134.724 57.2253 133.829 57.4202C133.786 57.4296 133.743 57.439 133.699 57.4487C132.844 57.6228 132.003 57.6754 131.134 57.6733C130.966 57.6731 130.797 57.6746 130.628 57.6762C129.613 57.6799 128.604 57.5803 127.626 57.2918C127.542 57.2676 127.542 57.2676 127.456 57.243C125.956 56.8018 124.542 56.0408 123.337 55.0387C123.301 55.0092 123.266 54.9798 123.229 54.9494C121.915 53.8509 120.845 52.5563 120.01 51.054C119.973 50.9881 119.973 50.9881 119.935 50.9209C117.67 46.8563 117.238 41.5426 118.468 37.076C119.189 34.6136 120.425 32.492 122.166 30.6326C122.22 30.5747 122.274 30.5169 122.329 30.4572C122.756 30.0121 123.216 29.6335 123.706 29.2629C123.758 29.223 123.758 29.223 123.811 29.1824C124.4 28.7306 125.022 28.3619 125.678 28.0176C125.723 27.9933 125.769 27.969 125.816 27.9439C127.01 27.3173 128.295 26.9232 129.62 26.7102C129.662 26.703 129.703 26.6958 129.745 26.6883C130.439 26.5699 131.14 26.5729 131.842 26.5701ZM129.99 35.987C129.948 36.0213 129.906 36.0557 129.863 36.0911C129.505 36.3885 129.225 36.7386 128.943 37.1077C128.901 37.1616 128.859 37.2156 128.815 37.2711C127.471 39.0581 127.012 41.3587 127.301 43.5613C127.521 45.0065 128.086 46.2559 129.004 47.3807C129.031 47.4133 129.057 47.4459 129.084 47.4796C129.303 47.7505 129.539 47.9684 129.805 48.1901C129.863 48.2391 129.921 48.2881 129.98 48.3387C131.413 49.5234 133.219 49.9407 135.042 49.8088C136.148 49.6928 137.222 49.288 138.122 48.6259C138.183 48.5828 138.244 48.5397 138.306 48.4953C139.2 47.8344 140.146 46.964 140.648 45.9487C140.654 45.8636 140.657 45.7782 140.658 45.6929C140.658 45.6393 140.659 45.5858 140.659 45.5306C140.659 45.4716 140.66 45.4127 140.66 45.352C140.66 45.29 140.661 45.2281 140.661 45.1642C140.663 44.9583 140.664 44.7523 140.665 44.5464C140.665 44.4408 140.665 44.4408 140.666 44.3331C140.668 43.96 140.669 43.5869 140.67 43.2139C140.671 42.8296 140.673 42.4455 140.677 42.0612C140.679 41.765 140.679 41.4688 140.68 41.1725C140.68 41.031 140.681 40.8895 140.683 40.7479C140.701 39.6959 140.701 39.6959 140.34 38.7265C140.287 38.6176 140.235 38.5086 140.182 38.3996C139.232 36.7025 137.686 35.3213 135.831 34.7437C133.784 34.1835 131.612 34.5518 129.99 35.987Z" fill="#FCFCFC"/>
<path d="M98.8782 26.569C98.938 26.5689 98.9978 26.5689 99.0595 26.5688C101.599 26.5717 104.083 26.9821 106.394 28.0788C106.447 28.1034 106.499 28.1281 106.553 28.1535C107.581 28.641 108.524 29.2327 109.413 29.9466C109.504 30.0197 109.504 30.0197 109.597 30.0942C110.462 30.803 111.269 31.6102 111.926 32.5202C112.001 32.6243 112.078 32.7271 112.154 32.8298C113.927 35.2298 115.017 38.3533 115.032 41.3546C115.032 41.4135 115.033 41.4723 115.033 41.5329C115.034 41.7217 115.034 41.9104 115.035 42.0991C115.035 42.1957 115.035 42.1957 115.035 42.2942C115.034 43.2143 115.017 44.1092 114.834 45.0137C114.823 45.0696 114.813 45.1256 114.801 45.1833C114.542 46.4918 114.156 47.7246 113.602 48.9361C113.582 48.981 113.561 49.0259 113.54 49.0722C112.922 50.4115 112.105 51.6247 111.102 52.6989C110.977 52.8333 110.858 52.9701 110.741 53.1114C108.409 55.8079 104.654 57.2073 101.219 57.5903C101.176 57.5955 101.133 57.6006 101.089 57.6059C100.682 57.6516 100.28 57.6635 99.8716 57.6652C99.8024 57.6656 99.7333 57.6659 99.662 57.6663C99.5158 57.6669 99.3696 57.6673 99.2234 57.6675C99.0055 57.6681 98.7876 57.67 98.5697 57.672C94.4875 57.6912 90.3812 56.3335 87.4196 53.4225C87.316 53.3183 87.2136 53.2131 87.1113 53.1075C87.0628 53.0587 87.0143 53.0098 86.9643 52.9594C86.1212 52.1049 85.4201 51.1562 84.8324 50.1055C84.772 49.9977 84.7103 49.8906 84.6485 49.7836C83.7656 48.2186 83.2435 46.4158 82.9837 44.6401C82.9728 44.5659 82.9618 44.4916 82.9506 44.4151C82.8486 43.6696 82.8384 42.9286 82.8412 42.1769C82.8413 42.1136 82.8415 42.0503 82.8416 41.985C82.8448 41.0518 82.8675 40.1419 83.0453 39.2234C83.0579 39.1567 83.0704 39.09 83.0834 39.0213C83.3474 37.6526 83.7473 36.373 84.339 35.1142C84.3585 35.072 84.3779 35.0297 84.3979 34.9862C85.316 32.9958 86.7935 31.135 88.5486 29.8362C88.6504 29.7607 88.7508 29.6835 88.8512 29.6061C91.7382 27.4153 95.3213 26.5712 98.8782 26.569ZM94.8122 35.9859C94.7623 36.0266 94.7124 36.0673 94.661 36.1092C93.1828 37.3611 92.4757 39.3463 92.2989 41.2357C92.1191 43.6113 92.6447 45.8782 94.1814 47.7183C95.2195 48.9175 96.684 49.677 98.2621 49.8077C100.237 49.9249 101.851 49.366 103.343 48.0549C104.722 46.7327 105.437 44.7448 105.545 42.8581C105.55 42.6296 105.552 42.4016 105.551 42.173C105.551 42.0917 105.55 42.0103 105.55 41.9265C105.525 39.7777 104.838 37.7127 103.314 36.1727C102.219 35.1533 100.795 34.5588 99.3095 34.4916C99.2414 34.4883 99.1733 34.485 99.1032 34.4817C97.5134 34.4421 96.0217 34.9253 94.8122 35.9859Z" fill="#FCFCFC"/>
<path d="M155.865 27.021C158.894 27.021 161.924 27.021 165.045 27.021C165.048 28.2979 165.051 29.5748 165.054 30.8904C165.056 31.6996 165.058 32.5088 165.06 33.3181C165.062 33.7433 165.063 34.1686 165.064 34.5938C165.064 34.6471 165.064 34.7004 165.065 34.7553C165.067 35.6138 165.069 36.4722 165.071 37.3307C165.073 38.2128 165.075 39.0949 165.078 39.977C165.08 40.5206 165.081 41.0642 165.082 41.6078C165.083 41.9814 165.084 42.355 165.085 42.7286C165.086 42.9436 165.087 43.1586 165.087 43.3736C165.081 45.0108 165.081 45.0108 165.364 46.6175C165.377 46.6662 165.39 46.7148 165.404 46.765C165.694 47.7859 166.279 48.7513 167.205 49.2974C168.61 49.9908 170.156 49.8412 171.602 49.3531C172.563 48.9789 173.356 48.4021 174.101 47.6915C174.169 47.6285 174.169 47.6285 174.239 47.5643C174.527 47.2883 174.771 46.9905 175.006 46.6681C175.033 46.631 175.06 46.5938 175.088 46.5556C175.141 46.4812 175.193 46.4061 175.243 46.3302C175.304 46.2407 175.365 46.1521 175.428 46.0645C175.712 45.6386 175.755 45.3017 175.749 44.7954C175.75 44.7191 175.75 44.6428 175.751 44.5642C175.752 44.354 175.752 44.144 175.751 43.9338C175.75 43.7066 175.751 43.4794 175.752 43.2521C175.754 42.859 175.754 42.4659 175.753 42.0728C175.752 41.5044 175.753 40.936 175.754 40.3676C175.757 39.4453 175.757 38.523 175.757 37.6007C175.756 36.7051 175.757 35.8094 175.758 34.9138C175.758 34.83 175.758 34.83 175.758 34.7446C175.759 34.308 175.76 33.8715 175.761 33.4349C175.764 31.2969 175.764 29.159 175.764 27.021C178.793 27.021 181.823 27.021 184.944 27.021C184.947 28.4522 184.95 29.8833 184.953 31.3578C184.955 32.2641 184.957 33.1704 184.959 34.0766C184.961 34.5528 184.962 35.0289 184.963 35.5051C184.963 35.5647 184.963 35.6244 184.964 35.6859C184.966 36.6479 184.968 37.6099 184.97 38.5719C184.972 39.56 184.974 40.548 184.977 41.5361C184.979 42.1453 184.98 42.7544 184.981 43.3636C184.982 43.7819 184.983 44.2003 184.984 44.6186C184.985 44.8596 184.986 45.1005 184.986 45.3415C184.884 47.1248 184.884 47.1248 185.463 48.7373C185.853 49.1187 186.408 49.2263 186.915 49.3725C186.915 51.9202 186.915 54.4679 186.915 57.0928C186.336 57.2279 185.79 57.337 185.205 57.4119C185.164 57.4172 185.123 57.4225 185.081 57.4279C182.984 57.694 180.65 57.7785 178.879 56.4158C178.784 56.3321 178.69 56.2465 178.598 56.1589C178.551 56.1145 178.504 56.07 178.455 56.0242C177.482 55.0264 177.287 53.6926 177.195 52.3549C177.187 52.2313 177.187 52.2313 177.119 52.112C177.078 52.1662 177.037 52.2205 176.995 52.2764C176.607 52.7847 176.202 53.2661 175.764 53.7308C175.719 53.7792 175.675 53.8277 175.629 53.8777C173.715 55.8935 170.985 57.0028 168.31 57.4664C168.254 57.4766 168.198 57.4868 168.14 57.4973C167.218 57.6588 166.297 57.6724 165.364 57.6765C165.306 57.677 165.247 57.6775 165.187 57.678C162.666 57.6944 160.403 56.9653 158.576 55.1628C157.659 54.2244 157.044 53.032 156.604 51.8007C156.583 51.7395 156.561 51.6782 156.538 51.6151C155.927 49.7588 155.836 47.8014 155.844 45.8628C155.845 45.6089 155.844 45.3549 155.844 45.1009C155.844 44.663 155.845 44.225 155.846 43.7871C155.847 43.154 155.848 42.5209 155.848 41.8877C155.848 40.86 155.849 39.8323 155.851 38.8046C155.853 37.8075 155.854 36.8104 155.855 35.8132C155.855 35.7509 155.855 35.6886 155.855 35.6245C155.856 35.1371 155.856 34.6497 155.856 34.1624C155.858 31.7819 155.862 29.4015 155.865 27.021Z" fill="#FCFCFC"/>
<path d="M51.8727 16.001C63.1763 16.001 74.4799 16.001 86.126 16.001C86.126 18.7747 86.126 21.5484 86.126 24.4061C82.0396 24.4061 77.9533 24.4061 73.7431 24.4061C73.7431 35.1928 73.7431 45.9794 73.7431 57.0929C70.6325 57.0929 67.522 57.0929 64.3172 57.0929C64.3172 46.3063 64.3172 35.5197 64.3172 24.4061C60.2105 24.4061 56.1038 24.4061 51.8727 24.4061C51.8727 21.6324 51.8727 18.8587 51.8727 16.001Z" fill="#FCFCFC"/>
<path d="M222.536 41.5801C223.521 41.5323 224.541 41.9887 225.277 42.6298C226.233 43.5993 226.708 44.8262 227.02 46.1353C227.126 45.9748 227.18 45.8618 227.239 45.6828C227.266 45.6026 227.266 45.6026 227.294 45.5209C227.313 45.4633 227.332 45.4057 227.351 45.3464C227.371 45.2869 227.391 45.2274 227.412 45.166C227.475 44.9756 227.538 44.785 227.602 44.5944C227.665 44.4047 227.728 44.215 227.791 44.0254C227.831 43.9074 227.87 43.7894 227.909 43.6713C228.011 43.3652 228.122 43.0682 228.252 42.7733C230.103 43.1989 231.952 43.6326 233.797 44.0807C233.761 44.4046 233.686 44.6944 233.575 45.001C233.559 45.0477 233.543 45.0943 233.526 45.1424C233.49 45.2437 233.455 45.345 233.419 45.4462C233.32 45.7251 233.222 46.0046 233.125 46.2839C233.104 46.3428 233.084 46.4016 233.063 46.4622C232.66 47.6154 232.272 48.774 231.887 49.9332C231.868 49.9903 231.849 50.0473 231.83 50.1061C229.656 55.5058 229.656 55.5058 229.742 61.0604C229.936 61.4347 230.127 61.6848 230.532 61.825C231.128 61.9046 231.616 61.7453 232.095 61.3892C233.587 60.1361 234.492 58.3916 235.337 56.6574C235.386 56.557 235.386 56.557 235.436 56.4547C235.872 55.5504 236.166 54.7044 236.34 53.717C236.435 53.2129 236.551 52.7133 236.666 52.2135C236.685 52.1277 236.685 52.1277 236.705 52.0401C237.332 49.3211 238.172 46.6483 239.095 44.0185C239.117 43.9557 239.139 43.8929 239.162 43.8283C239.221 43.658 239.281 43.4879 239.342 43.318C239.359 43.269 239.376 43.22 239.394 43.1695C239.512 42.8428 239.512 42.8428 239.65 42.7733C239.827 42.8078 240.001 42.8471 240.176 42.8909C240.231 42.9042 240.285 42.9174 240.342 42.9311C240.522 42.9752 240.703 43.0199 240.884 43.0646C241.009 43.0953 241.134 43.126 241.259 43.1566C241.522 43.2209 241.785 43.2855 242.047 43.3504C242.385 43.4336 242.722 43.5163 243.059 43.5989C243.318 43.6622 243.577 43.7257 243.835 43.7892C243.96 43.8198 244.084 43.8503 244.208 43.8808C244.382 43.9235 244.556 43.9663 244.729 44.0092C244.781 44.0219 244.833 44.0346 244.886 44.0476C245.242 44.1359 245.242 44.1359 245.379 44.2053C245.255 44.6771 245.08 45.117 244.887 45.5642C241.616 53.0929 241.616 53.0929 241.548 60.9533C241.693 61.3202 241.842 61.5498 242.187 61.7549C242.703 61.9087 243.105 61.8424 243.592 61.6175C246.178 60.1699 247.476 56.2358 248.455 53.6231C248.576 53.3016 248.576 53.3016 248.644 53.233C248.745 53.2276 248.846 53.2264 248.947 53.227C249.008 53.2272 249.069 53.2274 249.131 53.2276C249.196 53.2281 249.26 53.2286 249.326 53.2291C249.422 53.2296 249.422 53.2296 249.521 53.23C249.68 53.2307 249.84 53.2318 250 53.233C249.855 53.8096 249.671 54.3714 249.48 54.9335C249.464 54.9809 249.448 55.0283 249.431 55.0771C248.922 56.5731 248.334 58.0313 247.659 59.4591C247.632 59.5158 247.605 59.5726 247.578 59.631C246.954 60.9586 246.231 62.2347 245.318 63.3815C245.267 63.4451 245.217 63.5088 245.166 63.5744C245.034 63.7402 244.899 63.9039 244.763 64.0664C244.721 64.1162 244.68 64.166 244.637 64.2174C243.721 65.2865 242.544 66.0696 241.19 66.4323C241.152 66.4432 241.115 66.4541 241.076 66.4653C240.078 66.6855 238.958 66.4968 238.084 65.9816C237.799 65.7857 237.553 65.557 237.309 65.3116C237.271 65.2755 237.233 65.2393 237.194 65.2021C235.876 63.8362 235.744 61.6157 235.645 59.8327C235.614 59.8927 235.614 59.8927 235.582 59.954C234.727 61.5762 233.809 63.0889 232.565 64.4399C232.523 64.486 232.482 64.5321 232.439 64.5795C231.559 65.5175 230.211 66.4097 228.903 66.5055C227.607 66.537 226.532 66.3886 225.547 65.4487C224.64 64.4793 224.187 63.185 223.976 61.8916C223.96 61.709 223.96 61.709 223.878 61.6382C223.848 61.6941 223.817 61.7499 223.785 61.8075C223.424 62.4484 222.999 63.0104 222.523 63.5683C222.479 63.6204 222.479 63.6204 222.434 63.6737C221.175 65.1523 219.465 66.2277 217.533 66.4945C215.753 66.6261 214.208 66.2348 212.839 65.0431C211.204 63.4929 210.488 61.2581 210.391 59.038C210.382 58.74 210.38 58.442 210.379 58.1438C210.379 58.081 210.378 58.0182 210.378 57.9536C210.378 57.8942 210.378 57.8348 210.378 57.7737C210.378 57.7205 210.378 57.6674 210.379 57.6126C210.386 57.4719 210.413 57.3536 210.448 57.2177C210.458 57.1222 210.466 57.0264 210.472 56.9305C210.603 55.1241 210.968 53.3675 211.619 51.6765C211.648 51.5981 211.648 51.5981 211.679 51.5181C212.402 49.6243 213.423 47.7714 214.699 46.1976C214.728 46.1612 214.758 46.1248 214.788 46.0873C215.49 45.224 216.287 44.4507 217.163 43.7694C217.197 43.7428 217.232 43.7162 217.267 43.6888C218.89 42.4334 220.489 41.7336 222.536 41.5801ZM220.305 47.5051C220.266 47.5413 220.227 47.5776 220.187 47.615C219.938 47.8523 219.728 48.118 219.516 48.3884C219.486 48.4262 219.457 48.464 219.426 48.5029C219.288 48.6827 219.169 48.8559 219.073 49.0616C219.324 49.1347 219.576 49.2072 219.828 49.2795C219.899 49.3003 219.971 49.3211 220.044 49.3425C220.147 49.372 220.147 49.372 220.252 49.4021C220.315 49.4203 220.379 49.4386 220.444 49.4574C220.624 49.5068 220.624 49.5068 220.86 49.4974C219.906 51.3388 218.678 52.9757 217.019 54.229C216.746 54.4372 216.697 54.5843 216.64 54.9141C216.628 54.9812 216.628 54.9812 216.616 55.0498C216.592 55.1912 216.569 55.3327 216.547 55.4744C216.528 55.5958 216.528 55.5958 216.508 55.7196C216.274 57.3655 216.187 59.4881 217.189 60.8916C217.558 61.3597 217.954 61.6347 218.519 61.825C219.699 61.905 220.681 61.5787 221.591 60.7977C221.718 60.6851 221.844 60.5705 221.969 60.4553C222.009 60.4196 222.049 60.384 222.091 60.3473C223.337 59.1841 223.982 57.4649 224.373 55.8445C224.445 55.5491 224.518 55.2542 224.591 54.9593C224.68 54.6016 224.769 54.2439 224.857 53.886C224.983 53.374 225.109 52.8622 225.241 52.3519C225.715 50.523 226.25 48.3491 225.368 46.5634C225.093 46.0985 224.709 45.7803 224.186 45.6372C222.639 45.4359 221.354 46.4953 220.305 47.5051Z" fill="#64D502"/>
<path d="M38.8421 60.3702C39.0844 60.5904 39.1673 60.8609 39.216 61.1784C39.1294 62.6636 37.6741 64.1118 36.6368 65.0646C34.5983 66.8703 31.8032 67.2382 29.2011 67.4278C29.1903 67.4623 29.1795 67.4968 29.1684 67.5323C29.0619 67.8648 28.9394 68.1836 28.7968 68.5018C28.7757 68.5493 28.7545 68.5967 28.7328 68.6456C28.6635 68.8003 28.5936 68.9546 28.5234 69.1088C28.4867 69.1895 28.4867 69.1895 28.4493 69.2717C28.1866 69.8466 27.9171 70.4162 27.6109 70.9689C27.5894 71.0077 27.5679 71.0465 27.5458 71.0865C27.2415 71.6234 27.0022 71.9609 26.398 72.144C25.9184 72.1925 25.5729 72.1732 25.1774 71.86C24.942 71.5516 24.9287 71.2289 24.9502 70.8521C25.0648 70.1798 25.2935 69.5802 25.5894 68.9688C25.6274 68.8887 25.6653 68.8087 25.7031 68.7286C25.801 68.5224 25.9001 68.3168 25.9996 68.1114C26.0587 67.9891 26.1172 67.8666 26.1756 67.744C26.2694 67.5471 26.364 67.3506 26.4593 67.1543C26.5116 67.0464 26.5635 66.9382 26.6154 66.8301C26.9394 66.1719 27.4 65.2675 28.1309 65.0034C28.5901 64.8934 29.045 64.8234 29.5139 64.7725C29.6671 64.7547 29.8202 64.7368 29.9733 64.719C30.2108 64.6919 30.4482 64.665 30.6858 64.6387C32.7707 64.406 34.5104 63.7444 35.8869 62.0712C36.0241 61.8878 36.1559 61.7018 36.2859 61.5131C36.4491 61.284 36.6136 61.0559 36.7787 60.8282C36.8057 60.7896 36.8327 60.751 36.8605 60.7112C37.0947 60.3965 37.3937 60.2576 37.7606 60.155C38.1463 60.1311 38.51 60.1541 38.8421 60.3702Z" fill="#64D502"/>
<path d="M247.105 33.8068C247.759 34.4168 248.091 35.1302 248.15 36.025C248.164 37.2475 247.671 38.3345 246.859 39.2234C245.928 40.0968 244.875 40.5654 243.598 40.544C242.887 40.5171 242.185 40.1973 241.661 39.7098C241.008 38.9724 240.797 38.1105 240.809 37.1443C240.861 36.2211 241.321 35.2968 241.931 34.6161C241.966 34.575 242.001 34.534 242.037 34.4916C243.3 33.1035 245.573 32.6038 247.105 33.8068Z" fill="#64D502"/>
<path d="M33.822 11.3311C36.0583 11.3311 38.2947 11.3311 40.5988 11.3311C40.5988 13.5911 40.5988 15.8512 40.5988 18.1797C38.3624 18.1797 36.1261 18.1797 33.822 18.1797C33.822 15.9197 33.822 13.6596 33.822 11.3311ZM34.8693 12.3895C34.8693 13.951 34.8693 15.5125 34.8693 17.1213C36.4144 17.1213 37.9595 17.1213 39.5514 17.1213C39.5514 15.5598 39.5514 13.9983 39.5514 12.3895C38.0063 12.3895 36.4613 12.3895 34.8693 12.3895Z" fill="#64D502"/>
<path d="M16.6334 11.3311C18.8697 11.3311 21.1061 11.3311 23.4102 11.3311C23.4102 13.5911 23.4102 15.8512 23.4102 18.1797C21.1738 18.1797 18.9375 18.1797 16.6334 18.1797C16.6334 15.9197 16.6334 13.6596 16.6334 11.3311ZM17.6191 12.3895C17.6191 13.951 17.6191 15.5125 17.6191 17.1213C19.1846 17.1213 20.75 17.1213 22.3628 17.1213C22.3628 15.5598 22.3628 13.9983 22.3628 12.3895C20.7974 12.3895 19.232 12.3895 17.6191 12.3895Z" fill="#64D502"/>
<path d="M16.6334 28.7021C18.8697 28.7021 21.1061 28.7021 23.4102 28.7021C23.4102 30.9622 23.4102 33.2223 23.4102 35.5508C21.1738 35.5508 18.9375 35.5508 16.6334 35.5508C16.6334 33.2908 16.6334 31.0307 16.6334 28.7021ZM17.6191 29.7606C17.6191 31.3426 17.6191 32.9247 17.6191 34.5546C19.1846 34.5546 20.75 34.5546 22.3628 34.5546C22.3628 32.9726 22.3628 31.3906 22.3628 29.7606C20.7974 29.7606 19.232 29.7606 17.6191 29.7606Z" fill="#64D502"/>
<path d="M26.3102 4.78481C26.393 4.78474 26.4758 4.78465 26.5585 4.78454C26.7783 4.78435 26.9981 4.78461 27.2178 4.78504C27.3542 4.7853 27.4907 4.78548 27.6271 4.78565C28.7226 4.7872 29.8182 4.78985 30.9135 4.80954C31.0265 4.81152 31.1394 4.81321 31.2524 4.81461C32.5123 4.83132 32.5123 4.83132 32.9057 5.14694C32.9459 5.201 32.9459 5.201 32.9868 5.25614C33.0286 5.30995 33.0286 5.30995 33.0713 5.36485C33.2952 5.70978 33.3137 6.00372 33.2679 6.41185C33.1587 6.74858 32.9292 6.95874 32.6518 7.15898C32.1495 7.39427 31.562 7.35505 31.0184 7.35382C30.9272 7.35398 30.9272 7.35398 30.8342 7.35415C30.6354 7.35442 30.4366 7.35424 30.2379 7.35403C30.0983 7.35407 29.9588 7.35413 29.8193 7.35421C29.5277 7.3543 29.2361 7.35417 28.9445 7.35388C28.5725 7.35352 28.2004 7.35373 27.8283 7.3541C27.5404 7.35433 27.2525 7.35425 26.9646 7.35409C26.8275 7.35405 26.6904 7.3541 26.5533 7.35425C24.4915 7.35596 24.4915 7.35596 23.9422 6.91772C23.6775 6.5679 23.6713 6.15051 23.7189 5.72699C23.8017 5.44128 23.9152 5.2707 24.1424 5.08103C24.8099 4.73025 25.5741 4.78363 26.3102 4.78481Z" fill="#64D502"/>
<path d="M27.9166 50.4829C27.964 50.4827 28.0113 50.4825 28.0602 50.4823C28.16 50.482 28.2599 50.4818 28.3598 50.4819C28.5111 50.4817 28.6623 50.4806 28.8136 50.4794C30.0974 50.4747 30.0974 50.4747 30.6184 50.867C30.9044 51.2056 30.9024 51.6086 30.8879 52.0363C30.8578 52.2968 30.8076 52.4285 30.6184 52.6102C30.1486 52.9232 29.6318 53.0032 29.0806 53.0025C29.0294 53.0028 28.9783 53.0031 28.9255 53.0033C28.8179 53.0037 28.7104 53.0037 28.6028 53.0035C28.4399 53.0033 28.277 53.0047 28.1141 53.0063C26.873 53.0111 26.873 53.0111 26.3983 52.6492C26.1037 52.3365 26.0551 51.9745 26.0595 51.5518C26.1081 51.2674 26.1846 51.057 26.379 50.8436C26.8705 50.5566 27.3523 50.4838 27.9166 50.4829Z" fill="#64D502"/>
<path d="M35.7317 13.2617C36.7075 13.2617 37.6834 13.2617 38.6888 13.2617C38.6888 14.2479 38.6888 15.2341 38.6888 16.2502C37.713 16.2502 36.7371 16.2502 35.7317 16.2502C35.7317 15.264 35.7317 14.2778 35.7317 13.2617Z" fill="#64D502"/>
<path d="M18.5431 13.2617C19.5189 13.2617 20.4948 13.2617 21.5002 13.2617C21.5002 14.2479 21.5002 15.2341 21.5002 16.2502C20.5244 16.2502 19.5485 16.2502 18.5431 16.2502C18.5431 15.264 18.5431 14.2778 18.5431 13.2617Z" fill="#64D502"/>
<path d="M18.5431 30.631C19.0196 30.6297 19.4961 30.6285 19.987 30.6271C20.1376 30.6266 20.2882 30.626 20.4434 30.6254C20.562 30.6252 20.6806 30.6251 20.7992 30.6249C20.8925 30.6245 20.8925 30.6245 20.9877 30.624C21.0465 30.624 21.1053 30.624 21.1658 30.624C21.2171 30.6238 21.2684 30.6237 21.3213 30.6235C21.4386 30.631 21.4386 30.631 21.5002 30.6933C21.5059 30.785 21.5074 30.877 21.5072 30.969C21.5072 31.0284 21.5072 31.0878 21.5072 31.149C21.5069 31.2118 21.5066 31.2747 21.5062 31.3395C21.5062 31.3969 21.5061 31.4544 21.506 31.5136C21.5057 31.7292 21.5049 31.9447 21.5041 32.1603C21.5028 32.6418 21.5015 33.1234 21.5002 33.6195C20.5244 33.6195 19.5485 33.6195 18.5431 33.6195C18.5431 32.6333 18.5431 31.6471 18.5431 30.631Z" fill="#64D502"/>
<path d="M218.951 49.062C219.391 49.0983 219.794 49.1928 220.218 49.3149C220.28 49.3325 220.342 49.35 220.406 49.3681C220.558 49.4109 220.709 49.4542 220.861 49.4978C220.769 49.819 220.628 50.0848 220.46 50.3695C220.433 50.4159 220.406 50.4622 220.378 50.51C219.527 51.9366 218.236 53.7193 216.733 54.4787C216.956 52.57 217.892 50.6391 218.951 49.062Z" fill="#FCFCFC"/>
<path d="M31.9127 34.5532C32.5633 34.5532 33.2139 34.5532 33.8841 34.5532C33.8841 34.882 33.8841 35.2107 33.8841 35.5494C33.2336 35.5494 32.583 35.5494 31.9127 35.5494C31.9127 35.2207 31.9127 34.8919 31.9127 34.5532Z" fill="#64D502"/>
<path d="M39.5522 28.7021C39.8979 28.7021 40.2435 28.7021 40.5996 28.7021C40.5996 29.0514 40.5996 29.4007 40.5996 29.7606C40.2539 29.7606 39.9083 29.7606 39.5522 29.7606C39.5522 29.4113 39.5522 29.062 39.5522 28.7021Z" fill="#64D502"/>
<path d="M33.822 28.7021C34.1676 28.7021 34.5132 28.7021 34.8693 28.7021C34.8693 29.0514 34.8693 29.4007 34.8693 29.7606C34.5237 29.7606 34.1781 29.7606 33.822 29.7606C33.822 29.4113 33.822 29.062 33.822 28.7021Z" fill="#64D502"/>
<path d="M24.2729 34.5532C24.6186 34.5532 24.9642 34.5532 25.3203 34.5532C25.3203 34.882 25.3203 35.2107 25.3203 35.5494C24.9746 35.5494 24.629 35.5494 24.2729 35.5494C24.2729 35.2207 24.2729 34.8919 24.2729 34.5532Z" fill="#64D502"/>
</g>
<defs>
<clipPath id="clip0_584_3359">
<rect width="250" height="72.2222" fill="white"/>
</clipPath>
</defs>
</svg>
